<svg xmlns="http://www.w3.org/2000/svg" version="1.1" xmlns:xlink="http://www.w3.org/1999/xlink" xmlns:svgjs="http://svgjs.dev/svgjs" width="1000" height="1000" viewBox="0 0 1000 1000"><rect width="1000" height="1000" fill="#000000"></rect><g transform="matrix(0.7,0,0,0.7,150,150.000126330154)"><svg viewBox="0 0 280 280" data-background-color="#ffffff" preserveAspectRatio="xMidYMid meet" height="1000" width="1000" xmlns="http://www.w3.org/2000/svg" xmlns:xlink="http://www.w3.org/1999/xlink"><g id="tight-bounds" transform="matrix(1,0,0,1,0,0.00005053206163552204)"><svg viewBox="0 0 280 280" height="280" width="280"><g><svg viewBox="0 0 280 280" height="280" width="280"><g><svg viewBox="0 0 280 280" height="280" width="280"><g id="textblocktransform"><svg viewBox="0 0 280 280" height="280" width="280" id="textblock"><g><svg viewBox="0 0 280 280" height="280" width="280"><g transform="matrix(1,0,0,1,93.8023569624789,74.00336708925556)"><svg viewBox="0 0 92.39528607504221 131.99326582148888" height="131.99326582148888" width="92.39528607504221"><g><svg version="1.1" xmlns="http://www.w3.org/2000/svg" xmlns:xlink="http://www.w3.org/1999/xlink" x="0" y="0" viewBox="0 0 70 100" enable-background="new 0 0 70 100" xml:space="preserve" height="131.99326582148888" width="92.39528607504221" class="icon-o-0" data-fill-palette-color="accent" id="o-0"><path d="M35 19L35 19H1.633l13.675 81h19.691H35h19.691l13.675-81H35zM13.455 65L8.56 36l52.88 0-4.896 29H13.455z" fill="#ffffff" data-fill-palette-color="accent"></path><path d="M68 9h-6l-2-9H35 10L8 9H2l-2 6h35 35L68 9zM34.857 11.475c-4.419 0-8-1.791-8-4s3.581-4 8-4c4.416 0 8 1.791 8 4S39.273 11.475 34.857 11.475z" fill="#ffffff" data-fill-palette-color="accent"></path></svg></g></svg></g><g><path d="M21.708 98.341l-1.908 5.479 10.921 3.803-1.065 3.058-26.27-9.147 2.509-7.206c1.122-3.221 2.566-5.387 4.334-6.496 1.774-1.107 3.9-1.23 6.377-0.368v0c3.471 1.209 5.207 3.787 5.207 7.736v0l14.289-3.03-1.258 3.612zM7.125 99.406l10.048 3.499 1.457-4.184c0.751-2.158 0.873-3.886 0.365-5.186-0.506-1.305-1.616-2.256-3.331-2.853v0c-1.733-0.603-3.161-0.529-4.285 0.222-1.127 0.758-2.084 2.269-2.872 4.534v0z" fill="#ffffff" data-fill-palette-color="primary"></path><path d="M48.382 43.489v0c2.092 1.883 3.06 4.046 2.902 6.488-0.157 2.442-1.432 4.993-3.824 7.652v0l-2.187 2.429 8.131 7.317-2.166 2.407-20.678-18.607 4.825-5.362c4.647-5.165 8.98-5.939 12.997-2.324zM34.809 50.641l8.397 7.556 1.947-2.163c1.914-2.127 2.956-3.978 3.126-5.554 0.171-1.566-0.505-3.034-2.026-4.402v0c-1.369-1.232-2.788-1.699-4.259-1.401-1.476 0.294-3.067 1.388-4.773 3.284v0z" fill="#ffffff" data-fill-palette-color="primary"></path><path d="M97.748 27.708v0c1.039 2.219 1.044 4.323 0.015 6.312-1.026 1.994-2.919 3.637-5.678 4.929v0c-2.987 1.399-5.464 2.09-7.432 2.075v0l-1.322-2.825c1.237-0.045 2.523-0.227 3.858-0.545 1.336-0.318 2.603-0.758 3.803-1.32v0c1.949-0.913 3.245-1.973 3.887-3.18 0.644-1.201 0.658-2.462 0.039-3.781v0c-0.41-0.876-0.923-1.51-1.537-1.902-0.609-0.395-1.434-0.634-2.475-0.717-1.044-0.089-2.544-0.037-4.502 0.155v0c-2.733 0.255-4.872 0.043-6.419-0.637-1.544-0.674-2.75-1.938-3.618-3.791v0c-0.907-1.937-0.898-3.825 0.026-5.661 0.921-1.828 2.581-3.304 4.981-4.428v0c2.507-1.174 5.026-1.793 7.554-1.858v0l0.284 2.972c-2.489 0.105-4.717 0.618-6.684 1.538v0c-1.548 0.725-2.603 1.625-3.168 2.701-0.558 1.073-0.56 2.2-0.007 3.382v0c0.41 0.876 0.905 1.518 1.484 1.927 0.585 0.406 1.367 0.662 2.344 0.767 0.987 0.108 2.398 0.077 4.234-0.095v0c3.086-0.297 5.377-0.137 6.872 0.479 1.501 0.614 2.655 1.781 3.461 3.503z" fill="#ffffff" data-fill-palette-color="primary"></path><path d="M139.362 2.908v0c-3.058 0.12-5.43 1.231-7.117 3.333-1.687 2.108-2.461 4.929-2.322 8.462v0c0.143 3.64 1.107 6.416 2.893 8.328 1.779 1.919 4.247 2.816 7.403 2.692v0c1.939-0.076 4.136-0.511 6.591-1.304v0l0.111 2.83c-1.898 0.797-4.259 1.251-7.085 1.362v0c-4.09 0.161-7.296-0.956-9.617-3.35-2.328-2.394-3.582-5.881-3.762-10.461v0c-0.113-2.866 0.325-5.395 1.312-7.588 0.987-2.2 2.471-3.922 4.45-5.166 1.973-1.244 4.329-1.92 7.069-2.028v0c2.912-0.115 5.481 0.318 7.707 1.298v0l-1.261 2.823c-2.143-0.903-4.267-1.314-6.372-1.231z" fill="#ffffff" data-fill-palette-color="primary"></path><path d="M185.001 21.934v0c-1.064 4.322-2.994 7.452-5.79 9.39-2.796 1.938-6.14 2.428-10.03 1.47v0c-3.975-0.978-6.743-2.949-8.306-5.911-1.569-2.964-1.807-6.665-0.715-11.104v0c1.081-4.393 3.004-7.534 5.768-9.425 2.769-1.883 6.147-2.334 10.134-1.353v0c3.878 0.954 6.604 2.932 8.178 5.932 1.574 3 1.828 6.667 0.761 11.001zM163.478 16.637v0c-0.901 3.659-0.805 6.626 0.286 8.9 1.097 2.275 3.129 3.778 6.093 4.508v0c2.997 0.738 5.489 0.352 7.478-1.158 1.994-1.508 3.444-4.098 4.347-7.769v0c0.894-3.634 0.81-6.577-0.251-8.831-1.056-2.251-3.075-3.744-6.06-4.479v0c-2.991-0.736-5.5-0.351-7.528 1.156-2.022 1.508-3.477 4.066-4.365 7.673z" fill="#ffffff" data-fill-palette-color="primary"></path><path d="M200.724 31.974l-5.804 10.38-2.827-1.581 13.577-24.279 13.536 7.569-1.402 2.505-10.709-5.988-4.97 8.888 10.059 5.625-1.401 2.506z" fill="#ffffff" data-fill-palette-color="primary"></path><path d="M224.055 48.552l-7.989 8.808-2.399-2.176 18.689-20.604 11.487 10.419-1.929 2.126-9.088-8.243-6.842 7.543 8.536 7.743-1.929 2.126z" fill="#ffffff" data-fill-palette-color="primary"></path><path d="M242.663 85.167l-2.374 1.65-8.847-12.737 22.846-15.87 8.848 12.737-2.358 1.638-7-10.077-7.36 5.112 6.575 9.465-2.35 1.633-6.575-9.465-8.404 5.837z" fill="#ffffff" data-fill-palette-color="primary"></path><path d="M253.356 111.233l-2.697 1.04-5.579-14.47 25.956-10.007 5.578 14.471-2.679 1.032-4.413-11.448-8.362 3.224 4.146 10.753-2.67 1.029-4.145-10.753-9.548 3.681z" fill="#ffffff" data-fill-palette-color="primary"></path><path d="M23.96 187.914l-1.944-5.561-11.095 3.878-1.085-3.104 26.672-9.324 2.557 7.315c1.143 3.27 1.363 5.905 0.659 7.906-0.71 2.002-2.322 3.443-4.836 4.321v0c-3.533 1.235-6.543 0.281-9.031-2.863v0l-9.451 11.439-1.282-3.667zM34.873 177.858l-10.194 3.564 1.485 4.248c0.765 2.188 1.761 3.643 2.989 4.365 1.225 0.715 2.707 0.769 4.445 0.162v0c1.763-0.616 2.854-1.58 3.273-2.892 0.41-1.315 0.214-3.12-0.588-5.414v0z" fill="#ffffff" data-fill-palette-color="primary"></path><path d="M62.43 230.964v0c-2.127 1.914-4.413 2.661-6.858 2.241-2.449-0.425-4.89-1.988-7.322-4.691v0l-2.219-2.467-8.264 7.436-2.2-2.444 21.003-18.9 4.898 5.443c4.723 5.248 5.043 9.709 0.962 13.382zM56.658 216.484l-8.53 7.676 1.974 2.193c1.949 2.166 3.708 3.417 5.275 3.753 1.572 0.341 3.128-0.182 4.669-1.568v0c1.388-1.249 2.013-2.635 1.873-4.158-0.14-1.522-1.076-3.246-2.809-5.171v0z" fill="#ffffff" data-fill-palette-color="primary"></path><path d="M95.172 264.651v0c-1.059 2.254-2.699 3.628-4.921 4.12-2.228 0.49-4.742 0.078-7.541-1.237v0c-3.027-1.422-5.176-2.907-6.447-4.455v0l1.347-2.868c0.844 0.93 1.822 1.814 2.936 2.652 1.12 0.841 2.285 1.545 3.497 2.114v0c1.984 0.932 3.653 1.258 5.006 0.979 1.356-0.285 2.349-1.099 2.98-2.442v0c0.414-0.881 0.578-1.69 0.491-2.425-0.089-0.73-0.438-1.53-1.045-2.401-0.614-0.874-1.63-2.013-3.048-3.418v0c-1.974-1.966-3.201-3.772-3.68-5.416-0.47-1.648-0.264-3.41 0.617-5.287v0c0.926-1.972 2.403-3.192 4.43-3.659 2.03-0.474 4.265-0.137 6.705 1.008v0c2.542 1.194 4.66 2.76 6.355 4.698v0l-2.143 2.154c-1.693-1.878-3.538-3.286-5.535-4.224v0c-1.577-0.741-2.965-0.979-4.164-0.715-1.203 0.255-2.087 0.985-2.653 2.189v0c-0.417 0.887-0.596 1.689-0.536 2.404 0.065 0.718 0.373 1.496 0.924 2.333 0.551 0.837 1.493 1.916 2.826 3.238v0c2.229 2.218 3.593 4.113 4.09 5.686 0.495 1.564 0.331 3.221-0.491 4.972z" fill="#ffffff" data-fill-palette-color="primary"></path><path d="M140.352 253.909v0c-3.104-0.13-5.595 0.8-7.475 2.79-1.886 1.989-2.905 4.781-3.055 8.373v0c-0.154 3.693 0.593 6.584 2.243 8.676 1.643 2.084 4.069 3.193 7.279 3.327v0c1.965 0.082 4.227-0.178 6.784-0.78v0l-0.121 2.878c-1.989 0.653-4.42 0.919-7.292 0.799v0c-4.156-0.174-7.309-1.569-9.46-4.184-2.157-2.623-3.139-6.257-2.945-10.902v0c0.122-2.912 0.774-5.437 1.958-7.575 1.177-2.145 2.816-3.767 4.917-4.865 2.101-1.099 4.544-1.59 7.33-1.474v0c2.958 0.124 5.523 0.775 7.694 1.953v0l-1.507 2.761c-2.095-1.095-4.212-1.688-6.35-1.777z" fill="#ffffff" data-fill-palette-color="primary"></path><path d="M183.33 258.004v0c1.073 4.395 0.804 8.122-0.808 11.181-1.605 3.058-4.387 5.07-8.344 6.036v0c-4.041 0.987-7.46 0.513-10.257-1.422-2.804-1.933-4.756-5.155-5.858-9.666v0c-1.09-4.465-0.832-8.196 0.775-11.193 1.599-3.002 4.425-4.997 8.478-5.987v0c3.944-0.963 7.329-0.463 10.153 1.499 2.831 1.961 4.785 5.145 5.861 9.552zM161.451 263.347v0c0.908 3.719 2.388 6.344 4.438 7.875 2.053 1.537 4.588 1.938 7.606 1.2v0c3.043-0.743 5.106-2.263 6.188-4.558 1.084-2.29 1.17-5.3 0.259-9.032v0c-0.902-3.693-2.357-6.304-4.366-7.831-2.011-1.534-4.532-1.931-7.562-1.191v0c-3.043 0.743-5.122 2.27-6.235 4.58-1.115 2.304-1.224 5.29-0.328 8.957z" fill="#ffffff" data-fill-palette-color="primary"></path><path d="M199.119 252.358l5.881 10.552-2.872 1.601-13.756-24.68 13.755-7.666 1.422 2.551-10.882 6.065 5.03 9.026 10.231-5.703 1.422 2.551z" fill="#ffffff" data-fill-palette-color="primary"></path><path d="M221.912 236.221l8.102 8.961-2.439 2.206-18.95-20.959 11.681-10.561 1.959 2.167-9.241 8.355 6.929 7.664 8.688-7.855 1.959 2.166z" fill="#ffffff" data-fill-palette-color="primary"></path><path d="M255.114 210.38l2.413 1.682-9.007 12.917-23.177-16.161 9.007-12.916 2.395 1.67-7.125 10.22 7.465 5.204 6.699-9.608 2.38 1.659-6.699 9.609 8.524 5.943z" fill="#ffffff" data-fill-palette-color="primary"></path><path d="M267.518 181.116l2.742 1.063-5.69 14.682-26.346-10.21 5.691-14.682 2.723 1.055-4.502 11.616 8.485 3.289 4.233-10.922 2.705 1.049-4.233 10.921 9.69 3.755z" fill="#ffffff" data-fill-palette-color="primary"></path><path d="M3.663 143.415c0-5.961 4.832-10.793 10.793-10.793 5.961 0 10.793 4.832 10.794 10.793 0 5.961-4.832 10.793-10.794 10.793-5.961 0-10.793-4.832-10.793-10.793z" fill="#ffffff" data-fill-palette-color="primary"></path><path d="M254.026 143.415c0-5.961 4.832-10.793 10.793-10.793 5.961 0 10.793 4.832 10.794 10.793 0 5.961-4.832 10.793-10.794 10.793-5.961 0-10.793-4.832-10.793-10.793z" fill="#ffffff" data-fill-palette-color="primary"></path></g></svg></g></svg></g></svg></g></svg></g><defs></defs></svg><rect width="280" height="280" fill="none" stroke="none" visibility="hidden"></rect></g></svg></g></svg>