<svg version="1.1" id="Layer_1" xmlns="http://www.w3.org/2000/svg" xmlns:xlink="http://www.w3.org/1999/xlink" x="0px" y="0px"
	 width="100%" viewBox="0 0 1000 1000" enable-background="new 0 0  1000" xml:space="preserve">
<path fill="#000000" opacity="1.000000" stroke="none" 
	d="
M532.000000,1001.000000 
	C354.666656,1001.000000 177.833328,1001.000000 1.000000,1001.000000 
	C1.000000,667.666687 1.000000,334.333344 1.000000,1.000000 
	C334.333344,1.000000 667.666687,1.000000 1001.000000,1.000000 
	C1001.000000,334.333344 1001.000000,667.666687 1001.000000,1001.000000 
	C844.833313,1001.000000 688.666687,1001.000000 532.000000,1001.000000 
M476.500671,445.795715 
	C462.340240,445.796326 448.179199,445.716858 434.019562,445.823181 
	C422.942505,445.906372 416.520538,453.952942 418.898224,464.714661 
	C420.654510,472.663818 422.481781,480.604614 424.572937,488.470581 
	C427.469025,499.364227 430.026154,510.408478 433.871521,520.972168 
	C437.675415,531.421875 445.464752,539.299805 455.344482,546.905884 
	C443.563293,546.905884 433.151917,546.862854 422.741089,546.919678 
	C414.637604,546.963867 409.140900,551.879517 409.082642,558.982544 
	C409.024139,566.114624 414.485565,571.135437 422.563019,571.186768 
	C433.391144,571.255493 444.222595,571.336975 455.047119,571.127014 
	C458.499084,571.060059 461.216766,571.794556 463.266693,574.610291 
	C465.428162,577.579224 468.331146,578.332764 471.967102,578.281982 
	C485.791626,578.089111 499.622314,578.081360 513.446594,578.284485 
	C517.262878,578.340576 519.918091,577.088074 522.699646,574.551086 
	C524.652161,572.770264 527.750610,571.431274 530.382080,571.350464 
	C541.699829,571.002930 553.036011,571.316406 564.361755,571.144409 
	C571.804321,571.031372 576.925110,565.304443 576.401428,558.171326 
	C575.923340,551.659485 571.017517,547.032471 564.058411,546.952393 
	C552.832031,546.823181 541.603027,546.917664 530.721985,546.917664 
	C536.060486,540.797729 541.453552,535.000122 546.338318,528.801941 
	C547.997070,526.697144 549.413940,525.849976 551.989929,525.926331 
	C557.815491,526.099060 563.651550,526.067078 569.480286,525.957458 
	C583.658569,525.690796 595.643188,514.849365 596.966614,501.197205 
	C598.408203,486.326385 588.930420,473.528351 574.238525,470.706299 
	C571.166565,470.116211 567.996216,470.038544 564.748962,469.712463 
	C564.845703,468.848724 564.878174,468.027069 565.035828,467.230225 
	C567.949951,452.500916 562.467712,445.799988 547.469910,445.796997 
	C524.146851,445.792328 500.823761,445.795776 476.500671,445.795715 
M531.324524,428.207336 
	C533.489380,428.186218 535.660767,428.266266 537.817810,428.125336 
	C544.796997,427.669373 550.203430,422.264191 550.790222,415.255585 
	C551.352478,408.539703 546.462402,402.115997 539.617981,400.809631 
	C537.511047,400.407501 535.318115,400.333374 533.163635,400.324036 
	C521.504456,400.273346 509.844788,400.326721 498.185699,400.264496 
	C493.905579,400.241638 491.230042,398.137421 490.938171,393.703522 
	C490.665344,389.559174 493.417755,386.856171 498.111908,386.506073 
	C499.603058,386.394897 501.108734,386.474701 502.607788,386.474579 
	C525.926636,386.472626 549.246094,386.569733 572.564026,386.426086 
	C582.860229,386.362671 589.048157,379.993835 588.830933,370.314331 
	C588.620972,360.960785 582.226379,355.027679 572.220825,355.024475 
	C521.585571,355.008270 470.950348,355.007416 420.315125,355.024628 
	C410.452759,355.027985 404.130829,360.807068 403.917206,369.882172 
	C403.678253,380.032898 409.352417,386.156860 419.623199,386.420532 
	C427.779480,386.629913 435.945251,386.465332 444.106812,386.476837 
	C446.438080,386.480133 448.781952,386.372162 451.097687,386.573059 
	C455.191376,386.928253 457.671021,389.416840 457.659637,393.387848 
	C457.648438,397.298645 455.341644,399.852814 451.162323,400.237640 
	C449.506927,400.390076 447.831757,400.466248 446.206665,400.785950 
	C439.277222,402.149017 434.607269,408.208893 435.023468,415.185547 
	C435.436340,422.106354 440.892975,427.645752 447.880615,428.119751 
	C450.202820,428.277191 452.541992,428.213165 454.873199,428.203400 
	C463.700043,428.166412 471.201019,431.056671 476.632782,438.268188 
	C479.254761,441.749237 481.575317,441.641571 484.121002,438.237976 
	C489.421112,431.151703 496.759094,428.263672 505.382080,428.217896 
	C513.710022,428.173706 522.038330,428.207672 531.324524,428.207336 
M758.390015,473.500977 
	C758.498291,474.492828 758.579834,475.488464 758.718872,476.475983 
	C760.222595,487.160034 767.520874,495.000336 778.061584,497.268188 
	C787.988953,499.404144 798.456665,494.885132 803.814026,486.150787 
	C809.112122,477.513031 808.408142,466.180298 802.072327,458.111420 
	C796.063538,450.458984 785.997864,447.147644 776.616699,449.737335 
	C765.982239,452.672974 759.962646,460.256195 758.390015,473.500977 
M201.752472,454.185944 
	C200.674530,455.225037 199.511963,456.190460 198.532333,457.315186 
	C191.851379,464.985992 190.709488,476.351471 195.677017,485.256836 
	C200.606689,494.094360 210.909698,499.234314 220.452682,497.616852 
	C230.756042,495.870514 238.845917,488.479553 240.914597,478.922699 
	C243.090698,468.869537 239.145248,458.760010 230.835709,453.097290 
	C222.226227,447.230225 211.886902,447.486328 201.752472,454.185944 
M548.510803,741.820435 
	C551.098389,755.097595 558.122742,764.932373 571.407104,768.790649 
	C584.085083,772.472778 595.523010,769.196838 604.778381,759.753479 
	C615.078491,749.244263 616.096436,731.975037 607.611633,718.662598 
	C599.552307,706.017456 584.699646,700.978699 570.065491,705.924866 
	C554.908081,711.048035 546.840637,724.041504 548.510803,741.820435 
M224.039581,584.514587 
	C222.747238,586.035889 221.458115,587.559875 220.162003,589.077942 
	C215.139648,594.960144 215.092300,596.296692 219.774323,602.949829 
	C226.269913,595.198303 232.741455,587.475464 239.264450,579.691223 
	C247.152481,589.129333 254.848648,591.319641 264.031647,587.035889 
	C271.982452,583.326965 276.049164,575.601379 273.809357,565.786255 
	C271.875336,557.311157 268.589508,549.144531 265.859619,540.712952 
	C245.072693,547.948181 224.937744,554.956482 204.577332,562.043274 
	C205.723663,565.042725 206.635223,567.427795 207.571671,569.878052 
	C216.077850,566.973938 224.159866,564.214539 232.197708,561.470276 
	C235.922379,570.712769 235.918549,570.709473 230.021896,577.534912 
	C228.173080,579.674988 226.350906,581.838135 224.039581,584.514587 
M554.168457,187.833206 
	C553.916992,192.939789 552.739014,198.207443 553.593323,203.121811 
	C555.864807,216.189163 564.236938,224.352631 576.870605,227.674545 
	C589.152466,230.903961 600.197510,227.946259 608.420349,218.082550 
	C617.009583,207.779312 619.519653,195.902954 614.340027,183.128555 
	C609.436157,171.034027 597.038208,163.579575 583.212646,163.996338 
	C570.039856,164.393402 559.453430,172.885666 554.168457,187.833206 
M226.556137,347.838379 
	C215.680817,343.069305 206.331329,345.755890 201.346024,356.113068 
	C197.639542,363.813446 195.210312,372.128632 192.088669,380.501312 
	C212.348511,387.513550 232.023514,394.323395 252.133728,401.283844 
	C253.058075,398.537079 253.872986,396.115479 254.761703,393.474579 
	C246.425613,390.531006 238.508453,387.735352 230.945694,385.064850 
	C231.261688,377.688965 234.761734,374.329193 241.753876,373.888123 
	C246.351425,373.598083 250.874161,372.148438 255.434738,371.239990 
	C263.999023,369.534027 264.000336,369.540588 265.623352,360.611603 
	C255.783951,362.628479 246.087555,364.616058 235.934677,366.697174 
	C236.922607,358.404907 233.990219,352.313599 226.556137,347.838379 
M522.553955,770.987671 
	C523.879578,768.826355 525.205200,766.664978 526.676880,764.265564 
	C517.300354,763.087280 517.237915,763.042969 515.175110,765.949890 
	C509.473145,773.985291 501.506866,776.295959 492.331116,774.406616 
	C473.948853,770.621643 466.950592,745.795105 480.001099,731.215515 
	C489.167572,720.975098 506.907013,721.297241 514.762024,731.846741 
	C518.637756,737.051941 520.101990,737.561768 526.911865,736.077271 
	C523.077576,723.712463 510.594482,715.663208 496.238708,716.298828 
	C481.265228,716.961792 469.225983,726.696838 465.995300,740.753967 
	C462.335297,756.679260 468.680756,771.755798 481.956085,778.676147 
	C495.352203,785.659485 511.619507,782.764832 522.553955,770.987671 
M378.997650,707.893311 
	C381.335175,701.503418 384.137421,699.432190 389.866455,699.860168 
	C395.996521,700.318054 402.791779,705.128784 402.627380,710.512939 
	C402.429932,716.979187 406.955414,717.174011 411.123016,719.359558 
	C411.486969,717.340515 411.952545,715.762329 412.030701,714.165100 
	C412.655518,701.398804 397.070099,689.370483 383.686340,692.872864 
	C379.833649,693.881104 375.774902,696.657776 373.285736,699.794312 
	C367.935699,706.535767 368.898651,714.231567 375.037018,720.528320 
	C379.101654,724.697754 383.675903,728.377991 387.654205,732.622070 
	C392.753174,738.061646 392.034821,744.907166 386.375214,748.502075 
	C379.166351,753.081177 365.898682,747.015686 366.148407,738.535583 
	C366.335022,732.198364 362.918091,730.803711 358.023865,729.061768 
	C357.603516,731.385498 356.890350,733.616821 356.847595,735.860840 
	C356.662506,745.570374 365.968842,755.099976 377.355072,757.073486 
	C386.333435,758.629578 394.056793,755.238342 397.766205,748.111267 
	C401.627930,740.691467 400.394226,734.561646 393.399261,727.462097 
	C390.011017,724.023132 386.075897,721.068237 383.030731,717.365845 
	C381.059052,714.968689 380.249603,711.615601 378.997650,707.893311 
M510.823761,204.522186 
	C497.509918,212.447784 481.983551,207.970245 476.552582,194.495651 
	C473.711121,187.445847 473.571045,180.136795 476.136108,173.003693 
	C481.648376,157.674652 503.267181,152.710754 513.112610,165.042480 
	C517.142212,170.089706 520.922302,169.766586 525.869385,169.244324 
	C522.762512,157.514404 508.126434,148.651245 492.238007,151.429962 
	C475.500244,154.357208 465.236664,167.903946 466.016754,185.594208 
	C466.741699,202.034119 478.922150,214.451111 495.667175,215.665451 
	C508.204498,216.574646 523.551880,209.734772 526.502197,196.185852 
	C521.174805,195.351456 516.316650,195.550766 513.850952,201.596512 
	C513.449585,202.580566 512.230591,203.231140 510.823761,204.522186 
M399.022369,234.542511 
	C406.166412,227.630173 408.101288,220.385620 404.763428,213.046814 
	C401.338715,205.516922 395.899323,202.944626 385.201019,204.036972 
	C380.079651,204.559891 375.005005,205.598099 369.877655,205.987671 
	C365.186493,206.344055 361.892609,203.975540 360.426025,199.461472 
	C359.020386,195.134995 360.554291,191.616058 363.912750,188.819183 
	C369.960754,183.782425 375.881348,183.887344 383.056824,189.229980 
	C385.426636,188.071030 387.902069,186.860413 392.043427,184.835068 
	C387.545563,182.081894 384.381317,179.321976 380.703430,178.065506 
	C373.104401,175.469421 366.303345,178.506271 360.147430,182.824844 
	C352.430176,188.238724 349.844543,196.529266 353.137939,204.192749 
	C356.541718,212.112991 363.082916,215.218735 372.892914,213.602768 
	C377.486786,212.846039 382.069733,211.973892 386.690887,211.444458 
	C391.950745,210.841858 395.822693,213.171387 397.517151,217.549896 
	C399.174988,221.833893 397.813690,226.356476 393.904022,229.553558 
	C387.196045,235.038895 381.038086,234.655258 373.445496,228.200577 
	C371.066681,229.405777 368.648987,230.630661 366.181854,231.880569 
	C370.573761,238.653427 375.294983,241.849899 382.316101,240.753159 
	C387.863068,239.886703 393.093323,236.992889 399.022369,234.542511 
M301.691376,633.190063 
	C288.242279,645.245667 274.793182,657.301270 261.218750,669.469238 
	C263.243134,671.706848 264.894867,673.532593 266.841644,675.684387 
	C273.668701,669.621277 280.292236,663.738831 285.945007,658.718567 
	C291.135895,663.421692 295.619202,667.917053 300.550751,671.850403 
	C307.969604,677.767761 316.806458,677.409180 323.825348,671.396423 
	C330.709229,665.499512 332.923340,656.164062 327.780853,648.486694 
	C322.499146,640.601501 315.849457,633.632629 309.665161,626.100464 
	C306.691650,628.762939 304.468689,630.753357 301.691376,633.190063 
M718.898315,622.736511 
	C715.098511,620.155396 711.298767,617.574341 707.373779,614.908142 
	C712.300110,607.446106 716.934631,600.426086 721.822571,593.022278 
	C719.762817,591.703491 718.025635,590.591248 715.964722,589.271667 
	C709.466309,599.055664 703.170532,608.534546 696.763428,618.181091 
	C714.914551,630.237915 732.695984,642.049133 750.689636,654.001343 
	C757.191528,644.206360 763.477051,634.737366 769.956787,624.975769 
	C767.787842,623.614258 766.046265,622.520996 764.069031,621.279846 
	C759.090576,628.721008 754.337952,635.824707 749.498108,643.058716 
	C743.175110,638.820435 737.175598,634.798950 731.130066,630.746643 
	C735.572815,624.017334 739.740051,617.705444 744.067932,611.150146 
	C742.004578,609.811523 740.259338,608.679260 738.252441,607.377258 
	C733.805725,614.026733 729.597656,620.319214 725.215942,626.871460 
	C723.091553,625.460571 721.316528,624.281677 718.898315,622.736511 
M786.090149,588.681458 
	C789.495544,579.732849 792.900879,570.784241 796.414490,561.551208 
	C794.059509,560.682068 792.127014,559.968872 789.921326,559.154785 
	C786.726807,567.431946 783.656372,575.387817 780.484924,583.605286 
	C773.339966,580.865112 766.625244,578.289856 759.864441,575.696960 
	C762.711365,568.117798 765.369934,561.040222 768.135010,553.679138 
	C765.736206,552.838867 763.777100,552.152588 761.629639,551.400330 
	C758.736206,558.899170 756.019409,565.940308 753.214233,573.210327 
	C746.327698,570.594116 739.852112,568.134033 733.175354,565.597534 
	C736.241638,557.426086 739.251831,549.404236 742.406311,540.997620 
	C740.110107,540.136108 738.182007,539.412781 735.904297,538.558228 
	C731.715942,549.607605 727.699890,560.202332 723.593384,571.035583 
	C744.065308,578.813904 763.975159,586.378662 783.979004,593.979187 
	C784.743164,592.158386 785.318298,590.788025 786.090149,588.681458 
M299.873932,309.509521 
	C301.323242,307.790771 302.772522,306.072021 304.294312,304.267303 
	C297.607361,298.234009 291.236237,292.485626 284.918427,286.785370 
	C288.734161,282.270874 292.548340,278.285095 295.751709,273.857391 
	C302.193420,264.953552 301.202271,255.631927 293.493805,248.882721 
	C286.080231,242.391663 276.513824,242.459396 268.768463,249.794159 
	C262.763855,255.480423 257.433990,261.879211 251.560867,268.224121 
	C267.368652,282.311279 282.850525,296.110779 298.352051,309.888245 
	C298.531494,310.047729 298.965332,309.920990 299.873932,309.509521 
M755.770447,327.429016 
	C751.708435,321.165405 747.646423,314.901794 743.421082,308.386383 
	C749.308289,304.497437 755.038940,300.711823 760.940918,296.813080 
	C765.902771,304.253540 770.555908,311.231140 775.263916,318.290955 
	C777.366150,316.820892 778.987915,315.686829 780.852356,314.383057 
	C774.538940,304.864166 768.334900,295.510162 762.057007,286.044830 
	C744.173096,297.893707 726.776062,309.419983 709.160828,321.090820 
	C715.634338,330.831604 721.819641,340.138794 728.081787,349.561646 
	C730.284485,347.997131 731.881653,346.862671 733.627686,345.622528 
	C728.878357,338.416718 724.316162,331.494720 719.512817,324.206940 
	C725.575806,320.191986 731.496277,316.271423 737.561646,312.254883 
	C741.910889,318.715576 746.139526,324.997192 750.457947,331.412018 
	C752.370483,330.077820 753.861877,329.037506 755.770447,327.429016 
M801.548767,380.964478 
	C804.169067,385.452606 805.993469,380.223694 808.900391,381.071625 
	C804.641968,369.822205 800.681702,359.360382 796.680542,348.790588 
	C776.697510,356.349152 757.196533,363.725403 737.346680,371.233612 
	C741.472046,382.119110 745.428650,392.559296 749.446960,403.162323 
	C751.759338,402.211456 753.567993,401.467743 755.705017,400.588989 
	C752.706055,392.518341 749.783447,384.653076 746.773926,376.553894 
	C753.678772,373.954224 760.250427,371.479980 767.019592,368.931396 
	C769.837158,376.274048 772.491455,383.191132 775.284180,390.468964 
	C777.572021,389.526978 779.465942,388.747162 781.500122,387.909576 
	C778.739685,380.455780 776.171082,373.520081 773.543030,366.423859 
	C780.290527,363.897675 786.596924,361.536652 793.241455,359.049042 
	C795.988586,366.374695 798.597107,373.330963 801.548767,380.964478 
M648.506653,710.958801 
	C652.980042,708.205078 657.453369,705.451355 662.036560,702.630066 
	C660.656677,700.493958 659.529968,698.749695 658.342651,696.911621 
	C651.770020,700.870300 645.556641,704.612610 638.950867,708.591248 
	C635.114380,702.280396 631.474060,696.292297 627.710083,690.100830 
	C635.870972,685.100464 643.614258,680.356018 651.619019,675.451355 
	C650.326233,673.341675 649.238098,671.565918 648.035339,669.603149 
	C637.422852,676.064514 627.251160,682.257446 616.843262,688.594299 
	C628.075928,707.052612 639.186462,725.310303 650.454346,743.826416 
	C652.982239,742.261536 655.179321,740.901367 657.612061,739.395386 
	C652.493835,730.926331 647.620361,722.862183 642.646179,714.631348 
	C644.549927,713.426208 646.210876,712.374756 648.506653,710.958801 
M706.171753,663.343506 
	C709.059143,659.296814 703.851685,659.431213 703.450867,657.082886 
	C702.942017,656.770996 702.433167,656.459167 701.924377,656.147278 
	C697.036316,661.750000 692.148315,667.352783 688.091187,672.003174 
	C682.106018,666.645386 676.919678,662.002808 671.926880,657.533386 
	C678.532410,650.448792 684.804077,643.722290 691.284180,636.772217 
	C690.069763,635.554382 688.691528,634.172241 686.664551,632.139587 
	C678.375854,641.362122 670.330872,650.313416 662.153687,659.411804 
	C675.864136,673.627991 690.626160,688.934509 705.635986,704.497986 
	C707.777588,702.407654 709.646912,700.583130 712.789490,697.515808 
	C705.203674,691.011719 698.003845,684.838562 691.653748,679.393921 
	C696.982239,673.510681 701.331299,668.708862 706.171753,663.343506 
M635.993652,243.566345 
	C639.514221,237.810394 643.034729,232.054459 646.674500,226.103561 
	C653.119080,229.999298 659.216492,233.685181 665.697571,237.603012 
	C666.856506,235.727325 667.944214,233.966904 669.205933,231.924927 
	C662.767517,227.957794 656.625671,224.173431 650.214661,220.223160 
	C654.050232,213.944748 657.638245,208.071533 661.273315,202.121277 
	C669.328003,206.998474 676.943176,211.609558 684.766235,216.346497 
	C686.012817,214.285950 687.025452,212.612015 688.243591,210.598495 
	C678.035950,204.374496 668.019409,198.267044 657.697449,191.973312 
	C646.625854,210.149109 635.715820,228.059647 624.715149,246.118988 
	C627.362488,247.680237 629.456421,248.915131 631.783997,250.287811 
	C633.163513,248.093613 634.390320,246.142380 635.993652,243.566345 
M729.682617,256.808380 
	C731.826355,258.858276 733.970093,260.908173 736.209412,263.049438 
	C737.839905,261.310211 739.181702,259.878906 740.523560,258.447571 
	C740.060547,258.791901 739.597595,259.136230 739.134583,259.480530 
	C731.304688,250.738113 723.474854,241.995682 715.405762,232.986206 
	C700.264099,248.658157 685.772888,263.656830 672.148987,277.757782 
	C673.946106,280.339569 675.422729,282.460938 676.487427,283.990570 
	C683.634155,277.324371 690.299866,271.106903 698.138733,263.795105 
	C702.579468,269.088684 707.245178,274.650421 711.932007,280.237366 
	C714.586548,277.853821 716.030090,276.557587 717.528198,275.212402 
	C712.061646,269.645050 706.993591,264.483521 701.537048,258.926361 
	C706.814392,254.143127 711.959106,249.480087 718.089661,243.923569 
	C721.404785,247.628159 725.291870,251.971848 729.682617,256.808380 
M468.890381,828.526733 
	C467.284973,826.650085 467.428528,822.726440 463.020782,823.602844 
	C462.356903,828.139954 461.666290,832.551697 461.076477,836.976929 
	C460.493134,841.353577 460.011688,845.743896 459.390198,850.922546 
	C465.546844,849.733154 463.416016,845.164490 464.124146,842.274048 
	C464.950348,838.901794 465.224670,835.394348 465.935638,830.621948 
	C468.750305,835.769348 470.861572,839.630371 473.195770,843.899109 
	C475.618408,839.578613 477.706055,835.855530 480.505066,830.863770 
	C481.411591,837.510132 482.258301,842.536072 482.729248,847.596985 
	C483.030884,850.838318 484.424072,850.978149 486.900146,849.903992 
	C485.877930,841.933411 484.942566,834.179993 483.824890,826.453003 
	C483.668610,825.372681 482.616852,824.421936 481.979584,823.411194 
	C480.996735,824.137329 479.665100,824.657959 479.094177,825.626892 
	C477.104736,829.003174 475.378571,832.534607 473.235931,836.608643 
	C471.691559,833.802368 470.428558,831.507385 468.890381,828.526733 
M345.874023,828.988159 
	C345.794159,830.732056 345.714325,832.475952 345.633453,834.242065 
	C340.920532,834.242065 336.676147,834.242065 332.161346,834.242065 
	C332.161346,831.433777 332.359833,828.929810 332.071320,826.483276 
	C331.941681,825.384033 330.838623,824.399536 330.177216,823.362976 
	C329.580292,824.334412 328.486359,825.295532 328.465973,826.278931 
	C328.317993,833.420898 328.280365,840.570618 328.502441,847.708740 
	C328.535217,848.762695 330.121216,849.768311 330.988617,850.796326 
	C331.394714,850.465210 331.800812,850.134033 332.206909,849.802917 
	C332.206909,846.003723 332.206909,842.204590 332.206909,838.347290 
	C336.853821,838.347290 341.242218,838.347290 346.072571,838.347290 
	C346.072571,842.501831 346.072571,846.407104 346.072571,851.791077 
	C347.932343,850.123535 349.546814,849.357788 349.567169,848.551697 
	C349.759949,840.913086 349.767883,833.265442 349.567627,825.627197 
	C349.543762,824.716064 347.960571,823.845764 347.100159,822.956543 
	C346.691437,823.213989 346.282745,823.471497 345.874023,823.728943 
	C345.874023,825.179688 345.874023,826.630432 345.874023,828.988159 
M609.686584,827.892700 
	C604.659424,822.821594 598.545471,821.478638 592.975464,824.221924 
	C587.791565,826.775024 585.157227,832.529968 585.983215,839.497009 
	C586.647034,845.096130 590.434265,849.544739 595.880798,850.683838 
	C601.129944,851.781738 606.018616,850.746094 609.346863,846.305908 
	C613.558472,840.687195 613.415649,834.599915 609.686584,827.892700 
M369.053253,847.037720 
	C365.921082,847.037720 362.788910,847.037720 359.591370,847.037720 
	C359.591370,843.844421 359.591370,841.102051 359.591370,837.890259 
	C363.047943,837.890259 366.295898,837.890259 370.353699,837.890259 
	C367.683685,832.323242 362.736938,836.328979 359.640167,833.890564 
	C359.640167,831.889282 359.640167,829.643738 359.640167,826.903442 
	C363.753387,826.903442 367.825775,826.903442 371.936188,826.903442 
	C371.461487,822.923584 368.373169,822.391785 356.104309,823.743042 
	C356.104309,832.595703 356.104309,841.463440 356.104309,850.504578 
	C360.941010,850.504578 365.431671,850.586365 369.914490,850.435913 
	C370.815399,850.405579 371.686646,849.492798 372.571564,848.986938 
	C371.692017,848.337341 370.812469,847.687744 369.053253,847.037720 
M685.605469,823.372192 
	C683.483521,823.372192 681.361572,823.372192 679.157776,823.372192 
	C679.157776,832.647339 679.157776,841.497681 679.157776,850.321228 
	C694.464355,851.098145 694.775452,851.042908 695.414368,847.026733 
	C691.093994,847.026733 686.843872,847.026733 682.703979,847.026733 
	C682.703979,843.774231 682.703979,841.033752 682.703979,837.793640 
	C686.194519,837.793640 689.402954,837.793640 693.488831,837.793640 
	C690.604858,832.419067 685.698486,836.319641 682.647095,833.843811 
	C682.647095,831.789917 682.647095,829.558044 682.647095,826.985352 
	C686.802063,826.985352 690.734741,826.985352 694.667419,826.985352 
	C694.954773,826.625244 695.242188,826.265137 695.529541,825.905029 
	C694.690674,825.061768 693.950745,823.659241 692.992615,823.489685 
	C690.896240,823.118591 688.689209,823.373230 685.605469,823.372192 
M407.058105,844.221619 
	C407.351807,838.267517 407.750702,832.314941 407.834778,826.357910 
	C407.848663,825.375183 406.482941,824.373047 405.754791,823.379883 
	C405.179810,824.352234 404.151215,825.304321 404.106873,826.300293 
	C403.892548,831.115173 404.208374,835.962646 403.830414,840.758728 
	C403.383301,846.432983 398.287445,849.616577 393.527222,846.759094 
	C391.335663,845.443665 389.699921,841.873169 389.339661,839.124939 
	C388.679138,834.085876 389.151459,828.898315 389.151459,823.772705 
	C388.663940,823.499146 388.176453,823.225647 387.688934,822.952087 
	C386.897034,823.990845 385.475494,824.998413 385.422241,826.073730 
	C385.192230,830.717468 385.149689,835.394287 385.440155,840.033936 
	C385.827637,846.222595 388.501770,849.599304 393.356049,850.770325 
	C399.070618,852.148804 403.521973,850.243713 407.058105,844.221619 
M507.773895,848.513916 
	C508.935150,849.281128 510.096436,850.048279 511.257690,850.815491 
	C509.211365,841.738098 506.421906,833.765320 503.455170,825.859192 
	C503.078888,824.856506 501.878723,823.778748 500.864166,823.527466 
	C500.119415,823.343079 498.503021,824.248413 498.216125,825.018677 
	C495.128418,833.308899 492.227753,841.668762 489.275909,850.009583 
	C489.807678,850.359558 490.339417,850.709534 490.871185,851.059509 
	C491.929810,849.853210 493.713165,848.758423 493.919098,847.420837 
	C494.726776,842.174927 498.567596,843.551636 501.859711,843.087402 
	C505.783813,842.533997 506.711182,844.884216 507.773895,848.513916 
M657.239136,844.314209 
	C657.239136,846.243164 657.239136,848.172180 657.239136,850.534546 
	C662.473938,850.534546 667.108032,850.671143 671.721497,850.423584 
	C672.686768,850.371765 673.576050,848.903137 674.500305,848.087463 
	C674.174438,847.648254 673.848511,847.208984 673.522644,846.769775 
	C669.437988,846.769775 665.353394,846.769775 661.387024,846.769775 
	C661.387024,843.671326 661.387024,840.938599 661.387024,837.905273 
	C664.796753,837.905273 667.897095,837.905273 672.167664,837.905273 
	C669.183044,832.498962 664.268066,836.139954 661.283020,834.146912 
	C661.283020,831.889282 661.283020,829.620972 661.283020,826.934509 
	C663.432129,826.934509 665.382263,826.934570 667.332397,826.934570 
	C669.462830,826.934570 671.593262,826.934509 673.785645,826.934509 
	C673.258179,823.109497 666.503113,822.077576 657.239136,824.090820 
	C657.239136,830.449280 657.239136,836.902649 657.239136,844.314209 
M547.060974,837.999451 
	C548.487732,836.194824 548.957520,834.735229 545.803162,834.696838 
	C543.321533,834.666687 540.839294,834.690796 538.198486,834.690796 
	C538.198486,831.994080 538.198486,829.591003 538.198486,826.922852 
	C541.786621,826.922852 545.102112,827.040161 548.397888,826.837402 
	C549.187012,826.788818 549.910645,825.674500 550.664368,825.050354 
	C549.989563,824.489502 549.328613,823.463257 548.637695,823.442688 
	C543.859436,823.300476 539.074951,823.367737 534.342529,823.367737 
	C534.342529,832.718384 534.342529,841.450989 534.342529,850.141968 
	C547.495056,851.503967 550.390015,851.002991 550.720398,846.865173 
	C546.450500,846.865173 542.214722,846.865173 538.099854,846.865173 
	C538.099854,843.702515 538.099854,841.081055 538.099854,838.038757 
	C540.902283,838.038757 543.525269,838.038757 547.060974,837.999451 
M573.930176,826.581055 
	C576.860474,826.747559 579.790833,826.914124 584.087952,827.158325 
	C582.841736,825.669373 582.181946,824.141052 581.081116,823.690430 
	C575.526184,821.416687 568.463806,823.614807 565.058716,828.407776 
	C561.616638,833.252747 561.833923,841.585144 565.521851,846.169067 
	C569.079651,850.591248 576.092529,852.463318 581.335999,850.140259 
	C582.345032,849.693237 582.903076,848.228333 584.418213,846.259888 
	C573.522827,848.454285 569.234802,847.019836 567.320068,841.405090 
	C565.205994,835.205627 567.379883,829.741394 573.930176,826.581055 
M616.978882,828.680237 
	C616.978882,835.914734 616.978882,843.149231 616.978882,850.383728 
	C617.594788,850.499390 618.210693,850.615051 618.826660,850.730713 
	C623.440735,847.767883 619.144287,842.019409 621.692444,837.875610 
	C624.473022,837.875610 627.534302,837.875610 631.304932,837.875610 
	C628.939453,832.159180 623.825378,836.436646 621.127808,833.974548 
	C621.127808,831.746643 621.127808,829.505859 621.127808,826.931396 
	C624.666016,826.931396 627.957764,827.046814 631.230713,826.849976 
	C632.045532,826.801086 632.799805,825.744141 633.581970,825.150635 
	C632.784485,824.551392 632.004822,823.463684 631.186523,823.433838 
	C626.589233,823.265991 621.982666,823.352905 617.189880,823.352905 
	C617.103760,825.138062 617.041321,826.432373 616.978882,828.680237 
M637.084412,848.800720 
	C638.159058,849.441223 639.233643,850.081787 641.221619,851.266724 
	C641.221619,845.940125 641.221619,842.044922 641.221619,837.925659 
	C644.635010,837.925659 647.596619,837.925659 651.645935,837.925659 
	C649.048218,832.387878 643.956909,836.261230 641.238159,834.037781 
	C641.238159,831.782288 641.238159,829.526794 641.238159,826.939026 
	C644.760864,826.939026 648.055725,827.048645 651.334045,826.864319 
	C652.186646,826.816406 652.987671,825.850281 653.812317,825.305847 
	C653.073364,824.652039 652.354187,823.460083 651.592285,823.432251 
	C646.835938,823.258240 642.069946,823.344421 637.075317,823.344421 
	C637.075317,832.000183 637.075317,839.963013 637.084412,848.800720 
M439.449280,832.520630 
	C439.449280,830.766296 439.449280,829.011902 439.449280,826.919556 
	C442.277893,826.919556 444.542084,826.919556 446.803375,826.919556 
	C446.737305,822.922119 446.737518,822.930237 431.532654,823.348877 
	C429.341125,823.409180 426.853119,823.071045 428.596771,827.097168 
	C430.841156,827.097168 433.246002,827.097168 435.790192,827.097168 
	C435.790192,834.197632 435.724365,840.837280 435.859894,847.472839 
	C435.880646,848.488342 436.831177,849.484863 437.351685,850.490173 
	C438.050812,849.479431 439.304199,848.494995 439.353577,847.453430 
	C439.573547,842.814880 439.449188,838.159912 439.449280,832.520630 
M423.328735,847.058777 
	C421.376495,847.058777 419.424255,847.058777 417.274811,847.058777 
	C417.274811,839.763550 417.345673,832.966248 417.191986,826.173950 
	C417.170959,825.245728 416.030426,824.342834 415.408264,823.428162 
	C414.847504,824.238220 413.811859,825.041077 413.799530,825.859375 
	C413.677887,833.939758 413.725983,842.022705 413.725983,850.037476 
	C425.982788,851.439392 429.350128,850.818237 429.186615,847.058777 
	C427.556458,847.058777 425.912476,847.058777 423.328735,847.058777 
M522.758789,845.197083 
	C522.758789,839.139587 522.758789,833.082092 522.758789,826.945190 
	C525.153625,826.945190 526.833618,827.104614 528.458008,826.873474 
	C529.197937,826.768127 529.828003,825.891113 530.507935,825.364075 
	C529.794250,824.685669 529.099060,823.443420 528.363892,823.419312 
	C523.227783,823.250916 518.077881,823.216492 512.947754,823.461670 
	C512.158386,823.499390 511.448242,825.194092 509.996033,826.999512 
	C513.918030,826.999512 516.190002,826.999512 518.989746,826.999512 
	C518.989746,834.980530 518.989746,842.688049 518.989746,850.288574 
	C523.564941,851.201538 522.650208,848.267090 522.758789,845.197083 
M313.132904,844.293457 
	C313.814240,846.517273 311.209808,850.903442 317.185425,850.392578 
	C317.185425,842.310059 317.185425,834.725769 317.185425,826.947632 
	C319.198761,826.947632 320.870453,827.128845 322.473633,826.875977 
	C323.356384,826.736572 324.124054,825.867493 324.943634,825.327515 
	C324.225861,824.662354 323.526123,823.445007 322.787415,823.420837 
	C317.643951,823.252991 312.490692,823.269653 307.345428,823.407837 
	C306.660004,823.426270 306.001862,824.462097 305.331116,825.026794 
	C306.069672,825.666382 306.738892,826.721863 307.561249,826.859009 
	C309.275970,827.144958 311.071655,826.945557 313.132904,826.945557 
	C313.132904,832.763733 313.132904,838.052307 313.132904,844.293457 
M450.909393,847.090332 
	C451.606506,848.235046 452.303619,849.379822 453.000732,850.524536 
	C453.594513,849.390930 454.674713,848.268982 454.702179,847.121826 
	C454.864349,840.340759 454.730438,833.553223 454.807648,826.769226 
	C454.837891,824.111023 454.239929,822.593689 450.909363,823.929077 
	C450.909363,831.327576 450.909363,838.753174 450.909393,847.090332 
z"/>
<path fill="#F7F7F7" opacity="1.000000" stroke="none" 
	d="
M477.000671,445.795746 
	C500.823761,445.795776 524.146851,445.792328 547.469910,445.796997 
	C562.467712,445.799988 567.949951,452.500916 565.035828,467.230225 
	C564.878174,468.027069 564.845703,468.848724 564.748962,469.712463 
	C567.996216,470.038544 571.166565,470.116211 574.238525,470.706299 
	C588.930420,473.528351 598.408203,486.326385 596.966614,501.197205 
	C595.643188,514.849365 583.658569,525.690796 569.480286,525.957458 
	C563.651550,526.067078 557.815491,526.099060 551.989929,525.926331 
	C549.413940,525.849976 547.997070,526.697144 546.338318,528.801941 
	C541.453552,535.000122 536.060486,540.797729 530.721985,546.917664 
	C541.603027,546.917664 552.832031,546.823181 564.058411,546.952393 
	C571.017517,547.032471 575.923340,551.659485 576.401428,558.171326 
	C576.925110,565.304443 571.804321,571.031372 564.361755,571.144409 
	C553.036011,571.316406 541.699829,571.002930 530.382080,571.350464 
	C527.750610,571.431274 524.652161,572.770264 522.699646,574.551086 
	C519.918091,577.088074 517.262878,578.340576 513.446594,578.284485 
	C499.622314,578.081360 485.791626,578.089111 471.967102,578.281982 
	C468.331146,578.332764 465.428162,577.579224 463.266693,574.610291 
	C461.216766,571.794556 458.499084,571.060059 455.047119,571.127014 
	C444.222595,571.336975 433.391144,571.255493 422.563019,571.186768 
	C414.485565,571.135437 409.024139,566.114624 409.082642,558.982544 
	C409.140900,551.879517 414.637604,546.963867 422.741089,546.919678 
	C433.151917,546.862854 443.563293,546.905884 455.344482,546.905884 
	C445.464752,539.299805 437.675415,531.421875 433.871521,520.972168 
	C430.026154,510.408478 427.469025,499.364227 424.572937,488.470581 
	C422.481781,480.604614 420.654510,472.663818 418.898224,464.714661 
	C416.520538,453.952942 422.942505,445.906372 434.019562,445.823181 
	C448.179199,445.716858 462.340240,445.796326 477.000671,445.795746 
M474.500061,452.834534 
	C461.183411,452.834778 447.866486,452.787872 434.550171,452.854187 
	C427.316681,452.890228 424.247650,456.734314 425.884003,463.763458 
	C429.309692,478.478638 432.655029,493.217194 436.405518,507.850769 
	C440.530884,523.947083 449.903046,536.264648 464.661621,544.057983 
	C467.869019,545.751648 471.815857,546.640320 475.466095,546.784119 
	C484.939545,547.157288 494.494751,546.256958 503.910248,547.084229 
	C514.317627,547.998596 522.252869,543.763245 529.648682,537.482788 
	C538.926025,529.604492 545.076721,519.706970 547.992004,507.896912 
	C551.533325,493.550690 554.911499,479.164215 558.355103,464.793915 
	C560.347534,456.479309 557.507935,452.850311 548.908386,452.842743 
	C524.438965,452.821289 499.969543,452.834808 474.500061,452.834534 
M562.171326,553.940491 
	C516.072205,553.940247 469.972992,553.958374 423.873901,553.905884 
	C420.066040,553.901550 416.345276,554.273987 416.232574,558.894531 
	C416.110016,563.919067 420.049927,564.276978 424.007202,564.251892 
	C435.157074,564.181152 446.310577,564.371521 457.456451,564.149231 
	C461.273346,564.073181 464.341156,564.928345 466.592712,568.016968 
	C468.559875,570.715454 471.161041,571.268982 474.373322,571.226501 
	C486.520081,571.066162 498.672577,571.028198 510.817596,571.244080 
	C514.434692,571.308289 516.908203,570.164856 519.587097,567.767273 
	C521.686768,565.888000 524.965820,564.471680 527.769470,564.382935 
	C539.407410,564.014343 551.063965,564.191040 562.713257,564.248535 
	C566.292725,564.266174 569.234192,563.324402 569.340454,559.256287 
	C569.444275,555.280518 566.842590,553.757446 562.171326,553.940491 
M586.858093,486.825500 
	C581.011963,478.210480 572.615295,476.172455 562.700500,477.368835 
	C559.248047,491.253296 555.822327,505.030151 552.351562,518.988281 
	C557.633850,518.988281 562.951904,519.046936 568.268250,518.977417 
	C585.487976,518.752380 594.970337,502.951752 586.858093,486.825500 
z"/>
<path fill="#F6F6F6" opacity="1.000000" stroke="none" 
	d="
M530.845520,428.207306 
	C522.038330,428.207672 513.710022,428.173706 505.382080,428.217896 
	C496.759094,428.263672 489.421112,431.151703 484.121002,438.237976 
	C481.575317,441.641571 479.254761,441.749237 476.632782,438.268188 
	C471.201019,431.056671 463.700043,428.166412 454.873199,428.203400 
	C452.541992,428.213165 450.202820,428.277191 447.880615,428.119751 
	C440.892975,427.645752 435.436340,422.106354 435.023468,415.185547 
	C434.607269,408.208893 439.277222,402.149017 446.206665,400.785950 
	C447.831757,400.466248 449.506927,400.390076 451.162323,400.237640 
	C455.341644,399.852814 457.648438,397.298645 457.659637,393.387848 
	C457.671021,389.416840 455.191376,386.928253 451.097687,386.573059 
	C448.781952,386.372162 446.438080,386.480133 444.106812,386.476837 
	C435.945251,386.465332 427.779480,386.629913 419.623199,386.420532 
	C409.352417,386.156860 403.678253,380.032898 403.917206,369.882172 
	C404.130829,360.807068 410.452759,355.027985 420.315125,355.024628 
	C470.950348,355.007416 521.585571,355.008270 572.220825,355.024475 
	C582.226379,355.027679 588.620972,360.960785 588.830933,370.314331 
	C589.048157,379.993835 582.860229,386.362671 572.564026,386.426086 
	C549.246094,386.569733 525.926636,386.472626 502.607788,386.474579 
	C501.108734,386.474701 499.603058,386.394897 498.111908,386.506073 
	C493.417755,386.856171 490.665344,389.559174 490.938171,393.703522 
	C491.230042,398.137421 493.905579,400.241638 498.185699,400.264496 
	C509.844788,400.326721 521.504456,400.273346 533.163635,400.324036 
	C535.318115,400.333374 537.511047,400.407501 539.617981,400.809631 
	C546.462402,402.115997 551.352478,408.539703 550.790222,415.255585 
	C550.203430,422.264191 544.796997,427.669373 537.817810,428.125336 
	C535.660767,428.266266 533.489380,428.186218 530.845520,428.207306 
M412.214508,376.048370 
	C415.008331,377.168671 417.765839,379.132965 420.602600,379.255096 
	C430.079010,379.662964 439.584747,379.327209 449.077362,379.438354 
	C457.041351,379.531616 462.046600,383.088135 464.090363,389.383759 
	C467.023682,398.419556 459.346588,407.968323 449.781372,407.484650 
	C444.691345,407.227295 441.862976,410.459137 442.025360,414.610168 
	C442.183441,418.650238 444.989471,421.343689 449.827789,421.162354 
	C461.363495,420.730072 472.039215,422.580994 480.315186,431.695099 
	C488.112091,423.567444 497.393066,420.944031 507.858917,421.183502 
	C517.347595,421.400635 526.861877,421.521362 536.327759,421.005035 
	C538.720947,420.874512 541.736328,418.610535 543.028320,416.462402 
	C543.931335,414.960876 543.130371,411.236206 541.744385,409.868195 
	C540.115845,408.260742 537.043152,407.511108 534.575439,407.462067 
	C522.754333,407.227173 510.924774,407.461456 499.100708,407.320160 
	C489.861481,407.209778 484.006378,401.807465 483.888184,393.675629 
	C483.766876,385.330231 489.696960,379.728088 499.079224,379.432526 
	C502.573547,379.322418 506.074188,379.411957 509.571930,379.411896 
	C530.391846,379.411499 551.211853,379.439270 572.031677,379.395142 
	C578.601929,379.381226 581.779419,376.494476 581.811646,370.797333 
	C581.844910,364.922485 578.550598,362.055450 571.659241,362.054260 
	C521.524780,362.045685 471.390381,362.045471 421.255951,362.053101 
	C412.292572,362.054474 409.207184,366.425232 412.214508,376.048370 
z"/>
<path fill="#FCFCFC" opacity="1.000000" stroke="none" 
	d="
M758.403687,473.082520 
	C759.962646,460.256195 765.982239,452.672974 776.616699,449.737335 
	C785.997864,447.147644 796.063538,450.458984 802.072327,458.111420 
	C808.408142,466.180298 809.112122,477.513031 803.814026,486.150787 
	C798.456665,494.885132 787.988953,499.404144 778.061584,497.268188 
	C767.520874,495.000336 760.222595,487.160034 758.718872,476.475983 
	C758.579834,475.488464 758.498291,474.492828 758.403687,473.082520 
z"/>
<path fill="#FDFDFD" opacity="1.000000" stroke="none" 
	d="
M202.061661,453.994110 
	C211.886902,447.486328 222.226227,447.230225 230.835709,453.097290 
	C239.145248,458.760010 243.090698,468.869537 240.914597,478.922699 
	C238.845917,488.479553 230.756042,495.870514 220.452682,497.616852 
	C210.909698,499.234314 200.606689,494.094360 195.677017,485.256836 
	C190.709488,476.351471 191.851379,464.985992 198.532333,457.315186 
	C199.511963,456.190460 200.674530,455.225037 202.061661,453.994110 
z"/>
<path fill="#F8F8F8" opacity="1.000000" stroke="none" 
	d="
M548.411865,741.390198 
	C546.840637,724.041504 554.908081,711.048035 570.065491,705.924866 
	C584.699646,700.978699 599.552307,706.017456 607.611633,718.662598 
	C616.096436,731.975037 615.078491,749.244263 604.778381,759.753479 
	C595.523010,769.196838 584.085083,772.472778 571.407104,768.790649 
	C558.122742,764.932373 551.098389,755.097595 548.411865,741.390198 
M567.027832,715.326965 
	C557.945862,721.454529 555.311035,730.182373 557.049805,740.543762 
	C560.014832,758.212463 575.916382,767.409729 591.293457,760.438293 
	C604.083984,754.639526 608.446106,739.927917 601.644836,725.527405 
	C595.304260,712.102478 581.741211,707.884277 567.027832,715.326965 
z"/>
<path fill="#F7F7F7" opacity="1.000000" stroke="none" 
	d="
M224.278046,584.252625 
	C226.350906,581.838135 228.173080,579.674988 230.021896,577.534912 
	C235.918549,570.709473 235.922379,570.712769 232.197708,561.470276 
	C224.159866,564.214539 216.077850,566.973938 207.571671,569.878052 
	C206.635223,567.427795 205.723663,565.042725 204.577332,562.043274 
	C224.937744,554.956482 245.072693,547.948181 265.859619,540.712952 
	C268.589508,549.144531 271.875336,557.311157 273.809357,565.786255 
	C276.049164,575.601379 271.982452,583.326965 264.031647,587.035889 
	C254.848648,591.319641 247.152481,589.129333 239.264450,579.691223 
	C232.741455,587.475464 226.269913,595.198303 219.774323,602.949829 
	C215.092300,596.296692 215.139648,594.960144 220.162003,589.077942 
	C221.458115,587.559875 222.747238,586.035889 224.278046,584.252625 
M257.858307,579.978149 
	C265.692139,577.003540 268.500122,572.822937 266.731659,565.710510 
	C265.500122,560.757507 263.548920,555.983459 261.890289,551.043335 
	C254.013229,553.803833 246.537659,556.423645 238.769699,559.145935 
	C240.464905,563.811707 241.860168,568.218506 243.653900,572.456726 
	C246.376617,578.890076 249.864304,580.758240 257.858307,579.978149 
z"/>
<path fill="#F6F6F6" opacity="1.000000" stroke="none" 
	d="
M554.312317,187.448746 
	C559.453430,172.885666 570.039856,164.393402 583.212646,163.996338 
	C597.038208,163.579575 609.436157,171.034027 614.340027,183.128555 
	C619.519653,195.902954 617.009583,207.779312 608.420349,218.082550 
	C600.197510,227.946259 589.152466,230.903961 576.870605,227.674545 
	C564.236938,224.352631 555.864807,216.189163 553.593323,203.121811 
	C552.739014,198.207443 553.916992,192.939789 554.312317,187.448746 
M570.910889,176.314377 
	C565.471924,180.989639 562.789795,187.099594 561.566589,194.019272 
	C559.488892,205.772690 565.511719,216.242874 576.627686,220.063828 
	C587.872986,223.929230 599.052795,219.601440 604.705627,209.194687 
	C610.882202,197.823715 609.498718,184.862106 601.315063,177.429611 
	C592.924316,169.808960 581.315979,169.200272 570.910889,176.314377 
z"/>
<path fill="#F7F7F7" opacity="1.000000" stroke="none" 
	d="
M226.894882,347.989716 
	C233.990219,352.313599 236.922607,358.404907 235.934677,366.697174 
	C246.087555,364.616058 255.783951,362.628479 265.623352,360.611603 
	C264.000336,369.540588 263.999023,369.534027 255.434738,371.239990 
	C250.874161,372.148438 246.351425,373.598083 241.753876,373.888123 
	C234.761734,374.329193 231.261688,377.688965 230.945694,385.064850 
	C238.508453,387.735352 246.425613,390.531006 254.761703,393.474579 
	C253.872986,396.115479 253.058075,398.537079 252.133728,401.283844 
	C232.023514,394.323395 212.348511,387.513550 192.088669,380.501312 
	C195.210312,372.128632 197.639542,363.813446 201.346024,356.113068 
	C206.331329,345.755890 215.680817,343.069305 226.894882,347.989716 
M229.021317,363.904877 
	C227.365540,357.748474 223.555435,354.437439 217.579956,353.962158 
	C212.107635,353.526917 208.481079,355.991730 206.007950,362.179169 
	C204.372238,366.271545 203.039581,370.485016 201.460846,374.956970 
	C209.231842,377.641815 216.489197,380.149200 224.593658,382.949249 
	C226.169098,376.528412 227.615845,370.632080 229.021317,363.904877 
z"/>
<path fill="#F6F6F6" opacity="1.000000" stroke="none" 
	d="
M522.319092,771.261597 
	C511.619507,782.764832 495.352203,785.659485 481.956085,778.676147 
	C468.680756,771.755798 462.335297,756.679260 465.995300,740.753967 
	C469.225983,726.696838 481.265228,716.961792 496.238708,716.298828 
	C510.594482,715.663208 523.077576,723.712463 526.911865,736.077271 
	C520.101990,737.561768 518.637756,737.051941 514.762024,731.846741 
	C506.907013,721.297241 489.167572,720.975098 480.001099,731.215515 
	C466.950592,745.795105 473.948853,770.621643 492.331116,774.406616 
	C501.506866,776.295959 509.473145,773.985291 515.175110,765.949890 
	C517.237915,763.042969 517.300354,763.087280 526.676880,764.265564 
	C525.205200,766.664978 523.879578,768.826355 522.319092,771.261597 
z"/>
<path fill="#F7F7F7" opacity="1.000000" stroke="none" 
	d="
M378.958496,708.292114 
	C380.249603,711.615601 381.059052,714.968689 383.030731,717.365845 
	C386.075897,721.068237 390.011017,724.023132 393.399261,727.462097 
	C400.394226,734.561646 401.627930,740.691467 397.766205,748.111267 
	C394.056793,755.238342 386.333435,758.629578 377.355072,757.073486 
	C365.968842,755.099976 356.662506,745.570374 356.847595,735.860840 
	C356.890350,733.616821 357.603516,731.385498 358.023865,729.061768 
	C362.918091,730.803711 366.335022,732.198364 366.148407,738.535583 
	C365.898682,747.015686 379.166351,753.081177 386.375214,748.502075 
	C392.034821,744.907166 392.753174,738.061646 387.654205,732.622070 
	C383.675903,728.377991 379.101654,724.697754 375.037018,720.528320 
	C368.898651,714.231567 367.935699,706.535767 373.285736,699.794312 
	C375.774902,696.657776 379.833649,693.881104 383.686340,692.872864 
	C397.070099,689.370483 412.655518,701.398804 412.030701,714.165100 
	C411.952545,715.762329 411.486969,717.340515 411.123016,719.359558 
	C406.955414,717.174011 402.429932,716.979187 402.627380,710.512939 
	C402.791779,705.128784 395.996521,700.318054 389.866455,699.860168 
	C384.137421,699.432190 381.335175,701.503418 378.958496,708.292114 
z"/>
<path fill="#F6F6F6" opacity="1.000000" stroke="none" 
	d="
M511.106628,204.279022 
	C512.230591,203.231140 513.449585,202.580566 513.850952,201.596512 
	C516.316650,195.550766 521.174805,195.351456 526.502197,196.185852 
	C523.551880,209.734772 508.204498,216.574646 495.667175,215.665451 
	C478.922150,214.451111 466.741699,202.034119 466.016754,185.594208 
	C465.236664,167.903946 475.500244,154.357208 492.238007,151.429962 
	C508.126434,148.651245 522.762512,157.514404 525.869385,169.244324 
	C520.922302,169.766586 517.142212,170.089706 513.112610,165.042480 
	C503.267181,152.710754 481.648376,157.674652 476.136108,173.003693 
	C473.571045,180.136795 473.711121,187.445847 476.552582,194.495651 
	C481.983551,207.970245 497.509918,212.447784 511.106628,204.279022 
z"/>
<path fill="#F8F8F8" opacity="1.000000" stroke="none" 
	d="
M398.743286,234.770966 
	C393.093323,236.992889 387.863068,239.886703 382.316101,240.753159 
	C375.294983,241.849899 370.573761,238.653427 366.181854,231.880569 
	C368.648987,230.630661 371.066681,229.405777 373.445496,228.200577 
	C381.038086,234.655258 387.196045,235.038895 393.904022,229.553558 
	C397.813690,226.356476 399.174988,221.833893 397.517151,217.549896 
	C395.822693,213.171387 391.950745,210.841858 386.690887,211.444458 
	C382.069733,211.973892 377.486786,212.846039 372.892914,213.602768 
	C363.082916,215.218735 356.541718,212.112991 353.137939,204.192749 
	C349.844543,196.529266 352.430176,188.238724 360.147430,182.824844 
	C366.303345,178.506271 373.104401,175.469421 380.703430,178.065506 
	C384.381317,179.321976 387.545563,182.081894 392.043427,184.835068 
	C387.902069,186.860413 385.426636,188.071030 383.056824,189.229980 
	C375.881348,183.887344 369.960754,183.782425 363.912750,188.819183 
	C360.554291,191.616058 359.020386,195.134995 360.426025,199.461472 
	C361.892609,203.975540 365.186493,206.344055 369.877655,205.987671 
	C375.005005,205.598099 380.079651,204.559891 385.201019,204.036972 
	C395.899323,202.944626 401.338715,205.516922 404.763428,213.046814 
	C408.101288,220.385620 406.166412,227.630173 398.743286,234.770966 
z"/>
<path fill="#F8F8F8" opacity="1.000000" stroke="none" 
	d="
M301.968536,632.966919 
	C304.468689,630.753357 306.691650,628.762939 309.665161,626.100464 
	C315.849457,633.632629 322.499146,640.601501 327.780853,648.486694 
	C332.923340,656.164062 330.709229,665.499512 323.825348,671.396423 
	C316.806458,677.409180 307.969604,677.767761 300.550751,671.850403 
	C295.619202,667.917053 291.135895,663.421692 285.945007,658.718567 
	C280.292236,663.738831 273.668701,669.621277 266.841644,675.684387 
	C264.894867,673.532593 263.243134,671.706848 261.218750,669.469238 
	C274.793182,657.301270 288.242279,645.245667 301.968536,632.966919 
M315.670288,643.819336 
	C313.709656,641.691040 311.749054,639.562744 309.707428,637.346558 
	C303.615509,642.833435 297.979767,647.909485 292.120026,653.187317 
	C295.834167,657.184387 299.021423,661.015015 302.627441,664.399414 
	C307.785583,669.240601 313.130585,669.223572 318.176300,664.812683 
	C323.425537,660.223877 324.068054,654.833313 319.956238,648.949524 
	C318.821045,647.325134 317.421631,645.885376 315.670288,643.819336 
z"/>
<path fill="#F5F5F5" opacity="1.000000" stroke="none" 
	d="
M719.219849,622.919678 
	C721.316528,624.281677 723.091553,625.460571 725.215942,626.871460 
	C729.597656,620.319214 733.805725,614.026733 738.252441,607.377258 
	C740.259338,608.679260 742.004578,609.811523 744.067932,611.150146 
	C739.740051,617.705444 735.572815,624.017334 731.130066,630.746643 
	C737.175598,634.798950 743.175110,638.820435 749.498108,643.058716 
	C754.337952,635.824707 759.090576,628.721008 764.069031,621.279846 
	C766.046265,622.520996 767.787842,623.614258 769.956787,624.975769 
	C763.477051,634.737366 757.191528,644.206360 750.689636,654.001343 
	C732.695984,642.049133 714.914551,630.237915 696.763428,618.181091 
	C703.170532,608.534546 709.466309,599.055664 715.964722,589.271667 
	C718.025635,590.591248 719.762817,591.703491 721.822571,593.022278 
	C716.934631,600.426086 712.300110,607.446106 707.373779,614.908142 
	C711.298767,617.574341 715.098511,620.155396 719.219849,622.919678 
z"/>
<path fill="#F7F7F7" opacity="1.000000" stroke="none" 
	d="
M785.991821,589.049561 
	C785.318298,590.788025 784.743164,592.158386 783.979004,593.979187 
	C763.975159,586.378662 744.065308,578.813904 723.593384,571.035583 
	C727.699890,560.202332 731.715942,549.607605 735.904297,538.558228 
	C738.182007,539.412781 740.110107,540.136108 742.406311,540.997620 
	C739.251831,549.404236 736.241638,557.426086 733.175354,565.597534 
	C739.852112,568.134033 746.327698,570.594116 753.214233,573.210327 
	C756.019409,565.940308 758.736206,558.899170 761.629639,551.400330 
	C763.777100,552.152588 765.736206,552.838867 768.135010,553.679138 
	C765.369934,561.040222 762.711365,568.117798 759.864441,575.696960 
	C766.625244,578.289856 773.339966,580.865112 780.484924,583.605286 
	C783.656372,575.387817 786.726807,567.431946 789.921326,559.154785 
	C792.127014,559.968872 794.059509,560.682068 796.414490,561.551208 
	C792.900879,570.784241 789.495544,579.732849 785.991821,589.049561 
z"/>
<path fill="#F7F7F7" opacity="1.000000" stroke="none" 
	d="
M299.577148,309.718689 
	C298.965332,309.920990 298.531494,310.047729 298.352051,309.888245 
	C282.850525,296.110779 267.368652,282.311279 251.560867,268.224121 
	C257.433990,261.879211 262.763855,255.480423 268.768463,249.794159 
	C276.513824,242.459396 286.080231,242.391663 293.493805,248.882721 
	C301.202271,255.631927 302.193420,264.953552 295.751709,273.857391 
	C292.548340,278.285095 288.734161,282.270874 284.918427,286.785370 
	C291.236237,292.485626 297.607361,298.234009 304.294312,304.267303 
	C302.772522,306.072021 301.323242,307.790771 299.577148,309.718689 
M272.082306,275.421509 
	C274.551422,277.592682 277.020538,279.763885 279.657867,282.082947 
	C282.416351,279.009064 285.080139,276.067657 287.708557,273.095032 
	C288.474274,272.229004 289.202972,271.315887 289.839325,270.352142 
	C293.510284,264.793091 292.848328,259.656677 287.940674,255.313721 
	C283.090118,251.021271 278.115936,250.721573 273.244476,255.087402 
	C269.369690,258.560028 266.015350,262.613403 262.273468,266.574615 
	C265.670624,269.636108 268.614136,272.288757 272.082306,275.421509 
z"/>
<path fill="#F5F5F5" opacity="1.000000" stroke="none" 
	d="
M755.561829,327.713074 
	C753.861877,329.037506 752.370483,330.077820 750.457947,331.412018 
	C746.139526,324.997192 741.910889,318.715576 737.561646,312.254883 
	C731.496277,316.271423 725.575806,320.191986 719.512817,324.206940 
	C724.316162,331.494720 728.878357,338.416718 733.627686,345.622528 
	C731.881653,346.862671 730.284485,347.997131 728.081787,349.561646 
	C721.819641,340.138794 715.634338,330.831604 709.160828,321.090820 
	C726.776062,309.419983 744.173096,297.893707 762.057007,286.044830 
	C768.334900,295.510162 774.538940,304.864166 780.852356,314.383057 
	C778.987915,315.686829 777.366150,316.820892 775.263916,318.290955 
	C770.555908,311.231140 765.902771,304.253540 760.940918,296.813080 
	C755.038940,300.711823 749.308289,304.497437 743.421082,308.386383 
	C747.646423,314.901794 751.708435,321.165405 755.561829,327.713074 
z"/>
<path fill="#F6F6F6" opacity="1.000000" stroke="none" 
	d="
M801.377197,380.625854 
	C798.597107,373.330963 795.988586,366.374695 793.241455,359.049042 
	C786.596924,361.536652 780.290527,363.897675 773.543030,366.423859 
	C776.171082,373.520081 778.739685,380.455780 781.500122,387.909576 
	C779.465942,388.747162 777.572021,389.526978 775.284180,390.468964 
	C772.491455,383.191132 769.837158,376.274048 767.019592,368.931396 
	C760.250427,371.479980 753.678772,373.954224 746.773926,376.553894 
	C749.783447,384.653076 752.706055,392.518341 755.705017,400.588989 
	C753.567993,401.467743 751.759338,402.211456 749.446960,403.162323 
	C745.428650,392.559296 741.472046,382.119110 737.346680,371.233612 
	C757.196533,363.725403 776.697510,356.349152 796.680542,348.790588 
	C800.681702,359.360382 804.641968,369.822205 808.900391,381.071625 
	C805.993469,380.223694 804.169067,385.452606 801.377197,380.625854 
z"/>
<path fill="#F6F6F6" opacity="1.000000" stroke="none" 
	d="
M648.189209,711.141113 
	C646.210876,712.374756 644.549927,713.426208 642.646179,714.631348 
	C647.620361,722.862183 652.493835,730.926331 657.612061,739.395386 
	C655.179321,740.901367 652.982239,742.261536 650.454346,743.826416 
	C639.186462,725.310303 628.075928,707.052612 616.843262,688.594299 
	C627.251160,682.257446 637.422852,676.064514 648.035339,669.603149 
	C649.238098,671.565918 650.326233,673.341675 651.619019,675.451355 
	C643.614258,680.356018 635.870972,685.100464 627.710083,690.100830 
	C631.474060,696.292297 635.114380,702.280396 638.950867,708.591248 
	C645.556641,704.612610 651.770020,700.870300 658.342651,696.911621 
	C659.529968,698.749695 660.656677,700.493958 662.036560,702.630066 
	C657.453369,705.451355 652.980042,708.205078 648.189209,711.141113 
z"/>
<path fill="#F5F5F5" opacity="1.000000" stroke="none" 
	d="
M705.926086,663.625244 
	C701.331299,668.708862 696.982239,673.510681 691.653748,679.393921 
	C698.003845,684.838562 705.203674,691.011719 712.789490,697.515808 
	C709.646912,700.583130 707.777588,702.407654 705.635986,704.497986 
	C690.626160,688.934509 675.864136,673.627991 662.153687,659.411804 
	C670.330872,650.313416 678.375854,641.362122 686.664551,632.139587 
	C688.691528,634.172241 690.069763,635.554382 691.284180,636.772217 
	C684.804077,643.722290 678.532410,650.448792 671.926880,657.533386 
	C676.919678,662.002808 682.106018,666.645386 688.091187,672.003174 
	C692.148315,667.352783 697.036316,661.750000 701.924377,656.147278 
	C702.433167,656.459167 702.942017,656.770996 703.450867,657.082886 
	C703.851685,659.431213 709.059143,659.296814 705.926086,663.625244 
z"/>
<path fill="#F6F6F6" opacity="1.000000" stroke="none" 
	d="
M635.805420,243.878754 
	C634.390320,246.142380 633.163513,248.093613 631.783997,250.287811 
	C629.456421,248.915131 627.362488,247.680237 624.715149,246.118988 
	C635.715820,228.059647 646.625854,210.149109 657.697449,191.973312 
	C668.019409,198.267044 678.035950,204.374496 688.243591,210.598495 
	C687.025452,212.612015 686.012817,214.285950 684.766235,216.346497 
	C676.943176,211.609558 669.328003,206.998474 661.273315,202.121277 
	C657.638245,208.071533 654.050232,213.944748 650.214661,220.223160 
	C656.625671,224.173431 662.767517,227.957794 669.205933,231.924927 
	C667.944214,233.966904 666.856506,235.727325 665.697571,237.603012 
	C659.216492,233.685181 653.119080,229.999298 646.674500,226.103561 
	C643.034729,232.054459 639.514221,237.810394 635.805420,243.878754 
z"/>
<path fill="#F6F6F6" opacity="1.000000" stroke="none" 
	d="
M729.430786,256.561951 
	C725.291870,251.971848 721.404785,247.628159 718.089661,243.923569 
	C711.959106,249.480087 706.814392,254.143127 701.537048,258.926361 
	C706.993591,264.483521 712.061646,269.645050 717.528198,275.212402 
	C716.030090,276.557587 714.586548,277.853821 711.932007,280.237366 
	C707.245178,274.650421 702.579468,269.088684 698.138733,263.795105 
	C690.299866,271.106903 683.634155,277.324371 676.487427,283.990570 
	C675.422729,282.460938 673.946106,280.339569 672.148987,277.757782 
	C685.772888,263.656830 700.264099,248.658157 715.405762,232.986206 
	C723.474854,241.995682 731.304688,250.738113 739.134583,259.480530 
	C739.597595,259.136230 740.060547,258.791901 740.523560,258.447571 
	C739.181702,259.878906 737.839905,261.310211 736.209412,263.049438 
	C733.970093,260.908173 731.826355,258.858276 729.430786,256.561951 
z"/>
<path fill="#EDEDED" opacity="1.000000" stroke="none" 
	d="
M469.027954,828.869568 
	C470.428558,831.507385 471.691559,833.802368 473.235931,836.608643 
	C475.378571,832.534607 477.104736,829.003174 479.094177,825.626892 
	C479.665100,824.657959 480.996735,824.137329 481.979614,823.411194 
	C482.616852,824.421936 483.668610,825.372681 483.824890,826.453003 
	C484.942566,834.179993 485.877930,841.933411 486.900146,849.903992 
	C484.424072,850.978149 483.030884,850.838318 482.729248,847.596985 
	C482.258301,842.536072 481.411591,837.510132 480.505066,830.863770 
	C477.706055,835.855530 475.618408,839.578613 473.195770,843.899109 
	C470.861572,839.630371 468.750305,835.769348 465.935638,830.621948 
	C465.224670,835.394348 464.950348,838.901794 464.124146,842.274048 
	C463.416016,845.164490 465.546844,849.733154 459.390198,850.922546 
	C460.011688,845.743896 460.493134,841.353577 461.076477,836.976929 
	C461.666290,832.551697 462.356903,828.139954 463.020782,823.602844 
	C467.428528,822.726440 467.284973,826.650085 469.027954,828.869568 
z"/>
<path fill="#E3E3E3" opacity="1.000000" stroke="none" 
	d="
M345.874023,828.534668 
	C345.874023,826.630432 345.874023,825.179688 345.874023,823.728943 
	C346.282745,823.471497 346.691437,823.213989 347.100159,822.956543 
	C347.960571,823.845764 349.543762,824.716064 349.567627,825.627197 
	C349.767883,833.265442 349.759949,840.913086 349.567169,848.551697 
	C349.546814,849.357788 347.932343,850.123535 346.072571,851.791077 
	C346.072571,846.407104 346.072571,842.501831 346.072571,838.347290 
	C341.242218,838.347290 336.853821,838.347290 332.206909,838.347290 
	C332.206909,842.204590 332.206909,846.003723 332.206909,849.802917 
	C331.800812,850.134033 331.394714,850.465210 330.988617,850.796326 
	C330.121216,849.768311 328.535217,848.762695 328.502441,847.708740 
	C328.280365,840.570618 328.317993,833.420898 328.465973,826.278931 
	C328.486359,825.295532 329.580292,824.334412 330.177246,823.362976 
	C330.838623,824.399536 331.941681,825.384033 332.071320,826.483276 
	C332.359833,828.929810 332.161346,831.433777 332.161346,834.242065 
	C336.676147,834.242065 340.920532,834.242065 345.633453,834.242065 
	C345.714325,832.475952 345.794159,830.732056 345.874023,828.534668 
z"/>
<path fill="#EDEDED" opacity="1.000000" stroke="none" 
	d="
M609.890137,828.206055 
	C613.415649,834.599915 613.558472,840.687195 609.346863,846.305908 
	C606.018616,850.746094 601.129944,851.781738 595.880798,850.683838 
	C590.434265,849.544739 586.647034,845.096130 585.983215,839.497009 
	C585.157227,832.529968 587.791565,826.775024 592.975464,824.221924 
	C598.545471,821.478638 604.659424,822.821594 609.890137,828.206055 
M601.089844,847.140076 
	C606.654114,845.243713 608.748047,841.975281 608.265320,835.815247 
	C607.911560,831.300659 606.171753,827.797424 601.268127,826.823120 
	C595.238586,825.625183 590.743103,828.889587 590.004700,834.955505 
	C589.052979,842.773010 592.543823,846.961975 601.089844,847.140076 
z"/>
<path fill="#EDEDED" opacity="1.000000" stroke="none" 
	d="
M369.493103,847.037964 
	C370.812469,847.687744 371.692017,848.337341 372.571564,848.986938 
	C371.686646,849.492798 370.815399,850.405579 369.914490,850.435913 
	C365.431671,850.586365 360.941010,850.504578 356.104309,850.504578 
	C356.104309,841.463440 356.104309,832.595703 356.104309,823.743042 
	C368.373169,822.391785 371.461487,822.923584 371.936188,826.903442 
	C367.825775,826.903442 363.753387,826.903442 359.640167,826.903442 
	C359.640167,829.643738 359.640167,831.889282 359.640167,833.890564 
	C362.736938,836.328979 367.683685,832.323242 370.353699,837.890259 
	C366.295898,837.890259 363.047943,837.890259 359.591370,837.890259 
	C359.591370,841.102051 359.591370,843.844421 359.591370,847.037720 
	C362.788910,847.037720 365.921082,847.037720 369.493103,847.037964 
z"/>
<path fill="#EDEDED" opacity="1.000000" stroke="none" 
	d="
M686.066406,823.372192 
	C688.689209,823.373230 690.896240,823.118591 692.992615,823.489685 
	C693.950745,823.659241 694.690674,825.061768 695.529541,825.905029 
	C695.242188,826.265137 694.954773,826.625244 694.667419,826.985352 
	C690.734741,826.985352 686.802063,826.985352 682.647095,826.985352 
	C682.647095,829.558044 682.647095,831.789917 682.647095,833.843811 
	C685.698486,836.319641 690.604858,832.419067 693.488831,837.793640 
	C689.402954,837.793640 686.194519,837.793640 682.703979,837.793640 
	C682.703979,841.033752 682.703979,843.774231 682.703979,847.026733 
	C686.843872,847.026733 691.093994,847.026733 695.414368,847.026733 
	C694.775452,851.042908 694.464355,851.098145 679.157776,850.321228 
	C679.157776,841.497681 679.157776,832.647339 679.157776,823.372192 
	C681.361572,823.372192 683.483521,823.372192 686.066406,823.372192 
z"/>
<path fill="#E6E6E6" opacity="1.000000" stroke="none" 
	d="
M406.955719,844.607666 
	C403.521973,850.243713 399.070618,852.148804 393.356049,850.770325 
	C388.501770,849.599304 385.827637,846.222595 385.440155,840.033936 
	C385.149689,835.394287 385.192230,830.717468 385.422241,826.073730 
	C385.475494,824.998413 386.897034,823.990845 387.688934,822.952087 
	C388.176453,823.225647 388.663940,823.499146 389.151459,823.772705 
	C389.151459,828.898315 388.679138,834.085876 389.339661,839.124939 
	C389.699921,841.873169 391.335663,845.443665 393.527222,846.759094 
	C398.287445,849.616577 403.383301,846.432983 403.830414,840.758728 
	C404.208374,835.962646 403.892548,831.115173 404.106873,826.300293 
	C404.151215,825.304321 405.179810,824.352234 405.754761,823.379883 
	C406.482941,824.373047 407.848663,825.375183 407.834778,826.357910 
	C407.750702,832.314941 407.351807,838.267517 406.955719,844.607666 
z"/>
<path fill="#EDEDED" opacity="1.000000" stroke="none" 
	d="
M507.606262,848.148865 
	C506.711182,844.884216 505.783813,842.533997 501.859711,843.087402 
	C498.567596,843.551636 494.726776,842.174927 493.919098,847.420837 
	C493.713165,848.758423 491.929810,849.853210 490.871185,851.059509 
	C490.339417,850.709534 489.807678,850.359558 489.275909,850.009583 
	C492.227753,841.668762 495.128418,833.308899 498.216125,825.018677 
	C498.503021,824.248413 500.119415,823.343079 500.864166,823.527466 
	C501.878723,823.778748 503.078888,824.856506 503.455170,825.859192 
	C506.421906,833.765320 509.211365,841.738098 511.257690,850.815491 
	C510.096436,850.048279 508.935150,849.281128 507.606262,848.148865 
M501.704193,831.355957 
	C501.357574,830.794739 501.010986,830.233521 500.444580,829.316406 
	C499.211334,832.947815 498.091400,836.245605 496.897125,839.762207 
	C499.638000,839.762207 501.783325,839.762207 504.477051,839.762207 
	C503.564117,837.007080 502.743622,834.530884 501.704193,831.355957 
z"/>
<path fill="#E6E6E6" opacity="1.000000" stroke="none" 
	d="
M657.239136,843.835083 
	C657.239136,836.902649 657.239136,830.449280 657.239136,824.090820 
	C666.503113,822.077576 673.258179,823.109497 673.785645,826.934509 
	C671.593262,826.934509 669.462830,826.934570 667.332397,826.934570 
	C665.382263,826.934570 663.432129,826.934509 661.283020,826.934509 
	C661.283020,829.620972 661.283020,831.889282 661.283020,834.146912 
	C664.268066,836.139954 669.183044,832.498962 672.167664,837.905273 
	C667.897095,837.905273 664.796753,837.905273 661.387024,837.905273 
	C661.387024,840.938599 661.387024,843.671326 661.387024,846.769775 
	C665.353394,846.769775 669.437988,846.769775 673.522644,846.769775 
	C673.848511,847.208984 674.174438,847.648254 674.500305,848.087463 
	C673.576050,848.903137 672.686768,850.371765 671.721497,850.423584 
	C667.108032,850.671143 662.473938,850.534546 657.239136,850.534546 
	C657.239136,848.172180 657.239136,846.243164 657.239136,843.835083 
z"/>
<path fill="#E9E9E9" opacity="1.000000" stroke="none" 
	d="
M546.604614,838.019104 
	C543.525269,838.038757 540.902283,838.038757 538.099854,838.038757 
	C538.099854,841.081055 538.099854,843.702515 538.099854,846.865173 
	C542.214722,846.865173 546.450500,846.865173 550.720398,846.865173 
	C550.390015,851.002991 547.495056,851.503967 534.342529,850.141968 
	C534.342529,841.450989 534.342529,832.718384 534.342529,823.367737 
	C539.074951,823.367737 543.859436,823.300476 548.637695,823.442688 
	C549.328613,823.463257 549.989563,824.489502 550.664368,825.050354 
	C549.910645,825.674500 549.187012,826.788818 548.397888,826.837402 
	C545.102112,827.040161 541.786621,826.922852 538.198486,826.922852 
	C538.198486,829.591003 538.198486,831.994080 538.198486,834.690796 
	C540.839294,834.690796 543.321533,834.666687 545.803162,834.696838 
	C548.957520,834.735229 548.487732,836.194824 546.604614,838.019104 
z"/>
<path fill="#EDEDED" opacity="1.000000" stroke="none" 
	d="
M573.523071,826.708862 
	C567.379883,829.741394 565.205994,835.205627 567.320068,841.405090 
	C569.234802,847.019836 573.522827,848.454285 584.418213,846.259888 
	C582.903076,848.228333 582.345032,849.693237 581.335999,850.140259 
	C576.092529,852.463318 569.079651,850.591248 565.521851,846.169067 
	C561.833923,841.585144 561.616638,833.252747 565.058716,828.407776 
	C568.463806,823.614807 575.526184,821.416687 581.081116,823.690430 
	C582.181946,824.141052 582.841736,825.669373 584.087952,827.158325 
	C579.790833,826.914124 576.860474,826.747559 573.523071,826.708862 
z"/>
<path fill="#E6E6E6" opacity="1.000000" stroke="none" 
	d="
M616.978882,828.203430 
	C617.041321,826.432373 617.103760,825.138062 617.189880,823.352905 
	C621.982666,823.352905 626.589233,823.265991 631.186523,823.433838 
	C632.004822,823.463684 632.784485,824.551392 633.581909,825.150635 
	C632.799805,825.744141 632.045532,826.801086 631.230713,826.849976 
	C627.957764,827.046814 624.666016,826.931396 621.127808,826.931396 
	C621.127808,829.505859 621.127808,831.746643 621.127808,833.974548 
	C623.825378,836.436646 628.939453,832.159180 631.304932,837.875610 
	C627.534302,837.875610 624.473022,837.875610 621.692444,837.875610 
	C619.144287,842.019409 623.440735,847.767883 618.826660,850.730713 
	C618.210693,850.615051 617.594788,850.499390 616.978882,850.383728 
	C616.978882,843.149231 616.978882,835.914734 616.978882,828.203430 
z"/>
<path fill="#E3E3E3" opacity="1.000000" stroke="none" 
	d="
M637.079834,848.363281 
	C637.075317,839.963013 637.075317,832.000183 637.075317,823.344421 
	C642.069946,823.344421 646.835938,823.258240 651.592285,823.432251 
	C652.354187,823.460083 653.073364,824.652039 653.812378,825.305908 
	C652.987671,825.850281 652.186646,826.816406 651.334045,826.864319 
	C648.055725,827.048645 644.760864,826.939026 641.238159,826.939026 
	C641.238159,829.526794 641.238159,831.782288 641.243530,834.039856 
	C643.956909,836.261230 649.048218,832.387878 651.645935,837.925659 
	C647.596619,837.925659 644.635010,837.925659 641.221619,837.925659 
	C641.221619,842.044922 641.221619,845.940125 641.221619,851.266724 
	C639.233643,850.081787 638.159058,849.441223 637.079834,848.363281 
z"/>
<path fill="#E9E9E9" opacity="1.000000" stroke="none" 
	d="
M439.449249,833.015747 
	C439.449188,838.159912 439.573547,842.814880 439.353577,847.453430 
	C439.304199,848.494995 438.050812,849.479431 437.351685,850.490173 
	C436.831177,849.484863 435.880646,848.488342 435.859894,847.472839 
	C435.724365,840.837280 435.790192,834.197632 435.790192,827.097168 
	C433.246002,827.097168 430.841156,827.097168 428.596771,827.097168 
	C426.853119,823.071045 429.341125,823.409180 431.532654,823.348877 
	C446.737518,822.930237 446.737305,822.922119 446.803375,826.919556 
	C444.542084,826.919556 442.277893,826.919556 439.449280,826.919556 
	C439.449280,829.011902 439.449280,830.766296 439.449249,833.015747 
z"/>
<path fill="#F7F7F7" opacity="1.000000" stroke="none" 
	d="
M423.798615,847.058777 
	C425.912476,847.058777 427.556458,847.058777 429.186615,847.058777 
	C429.350128,850.818237 425.982788,851.439392 413.725983,850.037476 
	C413.725983,842.022705 413.677887,833.939758 413.799530,825.859375 
	C413.811859,825.041077 414.847504,824.238220 415.408264,823.428162 
	C416.030426,824.342834 417.170959,825.245728 417.191986,826.173950 
	C417.345673,832.966248 417.274811,839.763550 417.274811,847.058777 
	C419.424255,847.058777 421.376495,847.058777 423.798615,847.058777 
z"/>
<path fill="#E0E0E0" opacity="1.000000" stroke="none" 
	d="
M522.758789,845.653198 
	C522.650208,848.267090 523.564941,851.201538 518.989746,850.288574 
	C518.989746,842.688049 518.989746,834.980530 518.989746,826.999512 
	C516.190002,826.999512 513.918030,826.999512 509.996033,826.999512 
	C511.448242,825.194092 512.158386,823.499390 512.947754,823.461670 
	C518.077881,823.216492 523.227783,823.250916 528.363892,823.419312 
	C529.099060,823.443420 529.794250,824.685669 530.507935,825.364075 
	C529.828003,825.891113 529.197937,826.768127 528.458008,826.873474 
	C526.833618,827.104614 525.153625,826.945190 522.758789,826.945190 
	C522.758789,833.082092 522.758789,839.139587 522.758789,845.653198 
z"/>
<path fill="#E0E0E0" opacity="1.000000" stroke="none" 
	d="
M313.132904,843.817139 
	C313.132904,838.052307 313.132904,832.763733 313.132904,826.945557 
	C311.071655,826.945557 309.275970,827.144958 307.561249,826.859009 
	C306.738892,826.721863 306.069672,825.666382 305.331116,825.026794 
	C306.001862,824.462097 306.660004,823.426270 307.345428,823.407837 
	C312.490692,823.269653 317.643951,823.252991 322.787415,823.420837 
	C323.526123,823.445007 324.225861,824.662354 324.943604,825.327515 
	C324.124054,825.867493 323.356384,826.736572 322.473633,826.875977 
	C320.870453,827.128845 319.198761,826.947632 317.185425,826.947632 
	C317.185425,834.725769 317.185425,842.310059 317.185425,850.392578 
	C311.209808,850.903442 313.814240,846.517273 313.132904,843.817139 
z"/>
<path fill="#E0E0E0" opacity="1.000000" stroke="none" 
	d="
M450.909363,846.634521 
	C450.909363,838.753174 450.909363,831.327576 450.909363,823.929077 
	C454.239929,822.593689 454.837891,824.111023 454.807648,826.769226 
	C454.730438,833.553223 454.864349,840.340759 454.702179,847.121826 
	C454.674713,848.268982 453.594513,849.390930 453.000732,850.524536 
	C452.303619,849.379822 451.606506,848.235046 450.909363,846.634521 
z"/>
<path fill="#020202" opacity="1.000000" stroke="none" 
	d="
M475.000092,452.834534 
	C499.969543,452.834808 524.438965,452.821289 548.908386,452.842743 
	C557.507935,452.850311 560.347534,456.479309 558.355103,464.793915 
	C554.911499,479.164215 551.533325,493.550690 547.992004,507.896912 
	C545.076721,519.706970 538.926025,529.604492 529.648682,537.482788 
	C522.252869,543.763245 514.317627,547.998596 503.910248,547.084229 
	C494.494751,546.256958 484.939545,547.157288 475.466095,546.784119 
	C471.815857,546.640320 467.869019,545.751648 464.661621,544.057983 
	C449.903046,536.264648 440.530884,523.947083 436.405518,507.850769 
	C432.655029,493.217194 429.309692,478.478638 425.884003,463.763458 
	C424.247650,456.734314 427.316681,452.890228 434.550171,452.854187 
	C447.866486,452.787872 461.183411,452.834778 475.000092,452.834534 
M517.167114,493.233276 
	C517.167664,488.402588 516.998230,483.563721 517.229004,478.744049 
	C517.380920,475.572876 515.532288,470.589935 520.726501,470.389862 
	C525.423340,470.208954 523.783813,474.926971 524.160706,477.796204 
	C524.898499,483.412567 529.042725,487.463165 534.360291,487.649841 
	C539.440674,487.828156 544.523865,483.987457 544.871521,478.882050 
	C545.297607,472.624084 544.973145,466.315002 544.973145,460.015533 
	C542.549561,460.015533 540.487488,460.015533 538.076050,460.015533 
	C538.076050,465.094513 538.066406,469.896149 538.080017,474.697693 
	C538.087158,477.228912 538.370911,480.257996 534.901062,480.413116 
	C531.135681,480.581421 531.195740,477.491150 531.106506,474.723541 
	C530.880676,467.720886 526.760620,463.137238 520.773010,463.092865 
	C514.593933,463.047089 510.280640,467.864227 510.169342,475.080780 
	C510.089722,480.243439 510.287109,485.413177 510.098816,490.570221 
	C509.994507,493.426636 511.545868,497.977905 506.609650,497.794617 
	C501.994354,497.623260 503.293365,493.195648 503.260315,490.263641 
	C503.146362,480.160767 503.216431,470.055817 503.216431,460.114258 
	C500.571564,460.114258 498.519531,460.114258 496.223816,460.114258 
	C496.223816,471.801941 496.056854,483.109985 496.289551,494.409821 
	C496.418793,500.685974 500.925629,504.965240 506.643677,505.027069 
	C512.647095,505.091980 516.473206,501.136200 517.167114,493.233276 
M454.216125,522.509949 
	C451.789276,530.716980 460.828033,540.030273 470.769226,539.438965 
	C470.769226,537.346863 470.769226,535.252197 470.769226,533.029785 
	C464.268524,532.338623 461.060272,528.287537 459.869568,522.394592 
	C457.972107,522.394592 456.479828,522.394592 454.216125,522.509949 
M479.643585,533.007263 
	C479.336548,535.174255 479.029541,537.341187 478.691650,539.725952 
	C481.394165,539.725952 483.455750,539.725952 485.684906,539.725952 
	C485.684906,537.429199 485.684906,535.370483 485.684906,532.950623 
	C483.825104,532.950623 482.198822,532.950623 479.643585,533.007263 
z"/>
<path fill="#010101" opacity="1.000000" stroke="none" 
	d="
M562.630493,553.940918 
	C566.842590,553.757446 569.444275,555.280518 569.340454,559.256287 
	C569.234192,563.324402 566.292725,564.266174 562.713257,564.248535 
	C551.063965,564.191040 539.407410,564.014343 527.769470,564.382935 
	C524.965820,564.471680 521.686768,565.888000 519.587097,567.767273 
	C516.908203,570.164856 514.434692,571.308289 510.817596,571.244080 
	C498.672577,571.028198 486.520081,571.066162 474.373322,571.226501 
	C471.161041,571.268982 468.559875,570.715454 466.592712,568.016968 
	C464.341156,564.928345 461.273346,564.073181 457.456451,564.149231 
	C446.310577,564.371521 435.157074,564.181152 424.007202,564.251892 
	C420.049927,564.276978 416.110016,563.919067 416.232574,558.894531 
	C416.345276,554.273987 420.066040,553.901550 423.873901,553.905884 
	C469.972992,553.958374 516.072205,553.940247 562.630493,553.940918 
z"/>
<path fill="#030303" opacity="1.000000" stroke="none" 
	d="
M587.021362,487.164978 
	C594.970337,502.951752 585.487976,518.752380 568.268250,518.977417 
	C562.951904,519.046936 557.633850,518.988281 552.351562,518.988281 
	C555.822327,505.030151 559.248047,491.253296 562.700500,477.368835 
	C572.615295,476.172455 581.011963,478.210480 587.021362,487.164978 
z"/>
<path fill="#030303" opacity="1.000000" stroke="none" 
	d="
M412.031677,375.677795 
	C409.207184,366.425232 412.292572,362.054474 421.255951,362.053101 
	C471.390381,362.045471 521.524780,362.045685 571.659241,362.054260 
	C578.550598,362.055450 581.844910,364.922485 581.811646,370.797333 
	C581.779419,376.494476 578.601929,379.381226 572.031677,379.395142 
	C551.211853,379.439270 530.391846,379.411499 509.571930,379.411896 
	C506.074188,379.411957 502.573547,379.322418 499.079224,379.432526 
	C489.696960,379.728088 483.766876,385.330231 483.888184,393.675629 
	C484.006378,401.807465 489.861481,407.209778 499.100708,407.320160 
	C510.924774,407.461456 522.754333,407.227173 534.575439,407.462067 
	C537.043152,407.511108 540.115845,408.260742 541.744385,409.868195 
	C543.130371,411.236206 543.931335,414.960876 543.028320,416.462402 
	C541.736328,418.610535 538.720947,420.874512 536.327759,421.005035 
	C526.861877,421.521362 517.347595,421.400635 507.858917,421.183502 
	C497.393066,420.944031 488.112091,423.567444 480.315186,431.695099 
	C472.039215,422.580994 461.363495,420.730072 449.827789,421.162354 
	C444.989471,421.343689 442.183441,418.650238 442.025360,414.610168 
	C441.862976,410.459137 444.691345,407.227295 449.781372,407.484650 
	C459.346588,407.968323 467.023682,398.419556 464.090363,389.383759 
	C462.046600,383.088135 457.041351,379.531616 449.077362,379.438354 
	C439.584747,379.327209 430.079010,379.662964 420.602600,379.255096 
	C417.765839,379.132965 415.008331,377.168671 412.031677,375.677795 
z"/>
<path fill="#030303" opacity="1.000000" stroke="none" 
	d="
M567.360413,715.147522 
	C581.741211,707.884277 595.304260,712.102478 601.644836,725.527405 
	C608.446106,739.927917 604.083984,754.639526 591.293457,760.438293 
	C575.916382,767.409729 560.014832,758.212463 557.049805,740.543762 
	C555.311035,730.182373 557.945862,721.454529 567.360413,715.147522 
z"/>
<path fill="#030303" opacity="1.000000" stroke="none" 
	d="
M257.440674,580.042236 
	C249.864304,580.758240 246.376617,578.890076 243.653900,572.456726 
	C241.860168,568.218506 240.464905,563.811707 238.769699,559.145935 
	C246.537659,556.423645 254.013229,553.803833 261.890289,551.043335 
	C263.548920,555.983459 265.500122,560.757507 266.731659,565.710510 
	C268.500122,572.822937 265.692139,577.003540 257.440674,580.042236 
z"/>
<path fill="#030303" opacity="1.000000" stroke="none" 
	d="
M571.198608,176.089920 
	C581.315979,169.200272 592.924316,169.808960 601.315063,177.429611 
	C609.498718,184.862106 610.882202,197.823715 604.705627,209.194687 
	C599.052795,219.601440 587.872986,223.929230 576.627686,220.063828 
	C565.511719,216.242874 559.488892,205.772690 561.566589,194.019272 
	C562.789795,187.099594 565.471924,180.989639 571.198608,176.089920 
z"/>
<path fill="#040404" opacity="1.000000" stroke="none" 
	d="
M229.041962,364.320312 
	C227.615845,370.632080 226.169098,376.528412 224.593658,382.949249 
	C216.489197,380.149200 209.231842,377.641815 201.460846,374.956970 
	C203.039581,370.485016 204.372238,366.271545 206.007950,362.179169 
	C208.481079,355.991730 212.107635,353.526917 217.579956,353.962158 
	C223.555435,354.437439 227.365540,357.748474 229.041962,364.320312 
z"/>
<path fill="#050505" opacity="1.000000" stroke="none" 
	d="
M315.906860,644.090088 
	C317.421631,645.885376 318.821045,647.325134 319.956238,648.949524 
	C324.068054,654.833313 323.425537,660.223877 318.176300,664.812683 
	C313.130585,669.223572 307.785583,669.240601 302.627441,664.399414 
	C299.021423,661.015015 295.834167,657.184387 292.120026,653.187317 
	C297.979767,647.909485 303.615509,642.833435 309.707428,637.346558 
	C311.749054,639.562744 313.709656,641.691040 315.906860,644.090088 
z"/>
<path fill="#040404" opacity="1.000000" stroke="none" 
	d="
M271.819977,275.181458 
	C268.614136,272.288757 265.670624,269.636108 262.273468,266.574615 
	C266.015350,262.613403 269.369690,258.560028 273.244476,255.087402 
	C278.115936,250.721573 283.090118,251.021271 287.940674,255.313721 
	C292.848328,259.656677 293.510284,264.793091 289.839325,270.352142 
	C289.202972,271.315887 288.474274,272.229004 287.708557,273.095032 
	C285.080139,276.067657 282.416351,279.009064 279.657867,282.082947 
	C277.020538,279.763885 274.551422,277.592682 271.819977,275.181458 
z"/>
<path fill="#040404" opacity="1.000000" stroke="none" 
	d="
M600.671997,847.197510 
	C592.543823,846.961975 589.052979,842.773010 590.004700,834.955505 
	C590.743103,828.889587 595.238586,825.625183 601.268127,826.823120 
	C606.171753,827.797424 607.911560,831.300659 608.265320,835.815247 
	C608.748047,841.975281 606.654114,845.243713 600.671997,847.197510 
z"/>
<path fill="#050505" opacity="1.000000" stroke="none" 
	d="
M501.813660,831.705322 
	C502.743622,834.530884 503.564117,837.007080 504.477051,839.762207 
	C501.783325,839.762207 499.638000,839.762207 496.897125,839.762207 
	C498.091400,836.245605 499.211334,832.947815 500.444580,829.316406 
	C501.010986,830.233521 501.357574,830.794739 501.813660,831.705322 
z"/>
<path fill="#F6F6F6" opacity="1.000000" stroke="none" 
	d="
M517.165283,493.691956 
	C516.473206,501.136200 512.647095,505.091980 506.643677,505.027069 
	C500.925629,504.965240 496.418793,500.685974 496.289551,494.409821 
	C496.056854,483.109985 496.223816,471.801941 496.223816,460.114258 
	C498.519531,460.114258 500.571564,460.114258 503.216431,460.114258 
	C503.216431,470.055817 503.146362,480.160767 503.260315,490.263641 
	C503.293365,493.195648 501.994354,497.623260 506.609650,497.794617 
	C511.545868,497.977905 509.994507,493.426636 510.098816,490.570221 
	C510.287109,485.413177 510.089722,480.243439 510.169342,475.080780 
	C510.280640,467.864227 514.593933,463.047089 520.773010,463.092865 
	C526.760620,463.137238 530.880676,467.720886 531.106506,474.723541 
	C531.195740,477.491150 531.135681,480.581421 534.901062,480.413116 
	C538.370911,480.257996 538.087158,477.228912 538.080017,474.697693 
	C538.066406,469.896149 538.076050,465.094513 538.076050,460.015533 
	C540.487488,460.015533 542.549561,460.015533 544.973145,460.015533 
	C544.973145,466.315002 545.297607,472.624084 544.871521,478.882050 
	C544.523865,483.987457 539.440674,487.828156 534.360291,487.649841 
	C529.042725,487.463165 524.898499,483.412567 524.160706,477.796204 
	C523.783813,474.926971 525.423340,470.208954 520.726501,470.389862 
	C515.532288,470.589935 517.380920,475.572876 517.229004,478.744049 
	C516.998230,483.563721 517.167664,488.402588 517.165283,493.691956 
z"/>
<path fill="#EDEDED" opacity="1.000000" stroke="none" 
	d="
M454.601807,522.452271 
	C456.479828,522.394592 457.972107,522.394592 459.869568,522.394592 
	C461.060272,528.287537 464.268524,532.338623 470.769226,533.029785 
	C470.769226,535.252197 470.769226,537.346863 470.769226,539.438965 
	C460.828033,540.030273 451.789276,530.716980 454.601807,522.452271 
z"/>
<path fill="#F6F6F6" opacity="1.000000" stroke="none" 
	d="
M480.108063,532.978943 
	C482.198822,532.950623 483.825104,532.950623 485.684906,532.950623 
	C485.684906,535.370483 485.684906,537.429199 485.684906,539.725952 
	C483.455750,539.725952 481.394165,539.725952 478.691650,539.725952 
	C479.029541,537.341187 479.336548,535.174255 480.108063,532.978943 
z"/>
</svg>